<?xml version="1.0" encoding="UTF-8"?>
<!-- Generator: visioncortex VTracer 0.6.3 -->
<svg version="1.1" xmlns="http://www.w3.org/2000/svg" width="1280" height="1280">
<path d="M0 0 C0.78 -0 1.56 -0 2.36 -0 C4.99 -0.01 7.61 -0.01 10.24 -0 C12.14 -0 14.05 -0.01 15.95 -0.01 C21.21 -0.01 26.48 -0.01 31.74 -0.01 C37.45 -0.01 43.17 -0.01 48.88 -0.01 C58.91 -0.02 68.93 -0.02 78.95 -0.02 C89.71 -0.02 100.47 -0.02 111.23 -0.02 C111.91 -0.02 112.59 -0.02 113.29 -0.02 C116.05 -0.02 118.82 -0.03 121.58 -0.03 C150.45 -0.04 179.31 -0.04 208.18 -0.04 C211.29 -0.04 214.39 -0.04 217.5 -0.04 C218.27 -0.04 219.04 -0.04 219.84 -0.04 C236.92 -0.04 254 -0.04 271.08 -0.05 C278.11 -0.05 285.14 -0.05 292.17 -0.05 C293.34 -0.05 293.34 -0.05 294.53 -0.05 C339.05 -0.06 383.57 -0.06 428.09 -0.06 C429.75 -0.06 431.42 -0.06 433.08 -0.06 C440.61 -0.06 448.13 -0.06 455.66 -0.06 C459.01 -0.06 462.37 -0.06 465.72 -0.06 C467.4 -0.06 469.08 -0.06 470.76 -0.06 C523.88 -0.06 577 -0.07 630.11 -0.08 C643.5 -0.08 656.88 -0.09 670.27 -0.09 C671.09 -0.09 671.91 -0.09 672.76 -0.09 C698.15 -0.1 723.54 -0.1 748.93 -0.1 C750.13 -0.1 750.13 -0.1 751.35 -0.1 C768.84 -0.1 786.33 -0.1 803.83 -0.1 C810.08 -0.1 816.34 -0.1 822.6 -0.1 C824.16 -0.1 825.71 -0.1 827.27 -0.1 C852.1 -0.1 876.93 -0.11 901.76 -0.12 C926.77 -0.12 951.77 -0.13 976.77 -0.12 C980.22 -0.12 983.67 -0.12 987.12 -0.12 C987.8 -0.12 988.48 -0.12 989.18 -0.12 C1000.56 -0.12 1011.94 -0.12 1023.33 -0.13 C1033.22 -0.13 1043.11 -0.13 1052.99 -0.13 C1058.64 -0.12 1064.28 -0.12 1069.92 -0.13 C1075.05 -0.14 1080.18 -0.13 1085.31 -0.13 C1087.16 -0.12 1089.01 -0.12 1090.86 -0.13 C1093.36 -0.14 1095.86 -0.13 1098.36 -0.12 C1099.08 -0.13 1099.8 -0.13 1100.54 -0.14 C1104.83 -0.11 1108.24 0.62 1112.24 2.13 C1114.87 2.7 1117.48 3.25 1120.12 3.75 C1120.81 3.89 1121.49 4.02 1122.2 4.16 C1123.88 4.48 1125.56 4.81 1127.24 5.13 C1127.24 5.79 1127.24 6.45 1127.24 7.13 C1127.94 7.29 1128.65 7.44 1129.37 7.61 C1135.67 9.16 1141.15 11 1146.24 15.13 C1146.57 15.79 1146.9 16.45 1147.24 17.13 C1148.56 17.82 1149.9 18.49 1151.24 19.13 C1152.78 20.08 1154.3 21.06 1155.81 22.06 C1156.57 22.57 1157.33 23.07 1158.12 23.59 C1160.06 24.99 1161.7 26.31 1163.24 28.13 C1163.24 28.79 1163.24 29.45 1163.24 30.13 C1164.23 30.46 1165.22 30.79 1166.24 31.13 C1166.57 32.78 1166.9 34.43 1167.24 36.13 C1168.23 36.46 1169.22 36.79 1170.24 37.13 C1170.24 38.12 1170.24 39.11 1170.24 40.13 C1171.14 40.47 1171.14 40.47 1172.06 40.81 C1174.9 42.52 1175.66 44.21 1177.24 47.13 C1177.88 48.05 1177.88 48.05 1178.54 48.99 C1181.75 53.64 1182.83 56.47 1182.24 62.13 C1182.9 62.13 1183.56 62.13 1184.24 62.13 C1184.24 63.45 1184.24 64.77 1184.24 66.13 C1184.9 66.13 1185.56 66.13 1186.24 66.13 C1186.36 66.83 1186.49 67.52 1186.61 68.24 C1186.78 69.15 1186.95 70.06 1187.12 71 C1187.28 71.91 1187.44 72.81 1187.61 73.74 C1188.07 76.29 1188.07 76.29 1190.24 78.13 C1190.49 80.18 1190.49 80.18 1190.49 82.77 C1190.5 84.25 1190.5 84.25 1190.51 85.76 C1190.5 86.86 1190.5 87.95 1190.49 89.08 C1190.5 90.24 1190.5 91.4 1190.5 92.6 C1190.51 95.84 1190.51 99.08 1190.5 102.33 C1190.49 105.85 1190.5 109.37 1190.51 112.89 C1190.51 119.06 1190.51 125.24 1190.51 131.42 C1190.5 140.6 1190.5 149.79 1190.51 158.97 C1190.52 175.37 1190.52 191.78 1190.51 208.18 C1190.51 222.53 1190.51 236.88 1190.51 251.24 C1190.51 252.66 1190.51 252.66 1190.51 254.12 C1190.51 257.97 1190.51 261.83 1190.51 265.69 C1190.52 301.92 1190.51 338.14 1190.5 374.36 C1190.49 406.57 1190.49 438.78 1190.5 470.99 C1190.51 507.15 1190.52 543.31 1190.51 579.46 C1190.51 583.31 1190.51 587.17 1190.51 591.02 C1190.51 591.97 1190.51 592.91 1190.51 593.89 C1190.51 608.24 1190.51 622.59 1190.52 636.93 C1190.52 653.24 1190.52 669.54 1190.51 685.85 C1190.5 694.99 1190.5 704.12 1190.51 713.26 C1190.51 719.35 1190.51 725.44 1190.5 731.53 C1190.5 735.01 1190.5 738.49 1190.5 741.97 C1190.51 745.7 1190.5 749.44 1190.49 753.17 C1190.5 754.27 1190.5 755.36 1190.51 756.49 C1190.5 757.48 1190.5 758.46 1190.49 759.48 C1190.49 760.76 1190.49 760.76 1190.49 762.07 C1190.24 764.13 1190.24 764.13 1188.24 766.13 C1187.62 768.71 1187.23 771.29 1186.81 773.91 C1186.62 774.64 1186.43 775.37 1186.24 776.13 C1185.58 776.46 1184.92 776.79 1184.24 777.13 C1183.64 779.66 1183.29 782.2 1182.9 784.78 C1182.24 787.13 1182.24 787.13 1179.24 789.13 C1178.58 788.8 1177.92 788.47 1177.24 788.13 C1177.57 790.11 1177.9 792.09 1178.24 794.13 C1174.49 797.13 1174.49 797.13 1172.24 797.13 C1171.95 797.7 1171.67 798.28 1171.37 798.88 C1170.69 800.23 1170 801.59 1169.31 802.94 C1167.84 805.96 1166.55 809.04 1165.24 812.13 C1164.58 812.13 1163.92 812.13 1163.24 812.13 C1163.24 812.79 1163.24 813.45 1163.24 814.13 C1162.58 814.13 1161.92 814.13 1161.24 814.13 C1161.24 814.79 1161.24 815.45 1161.24 816.13 C1159.63 817.27 1159.63 817.27 1157.49 818.5 C1154.27 820.42 1151.86 822.42 1149.24 825.13 C1146.19 827.36 1144.42 828.1 1140.62 828.56 C1137.18 828.75 1137.18 828.75 1135.62 831.13 C1135.16 831.79 1134.71 832.45 1134.24 833.13 C1130.37 834.49 1127.21 833.96 1123.24 833.13 C1123.57 834.12 1123.9 835.11 1124.24 836.13 C1123.58 836.13 1122.92 836.13 1122.24 836.13 C1122.24 836.79 1122.24 837.45 1122.24 838.13 C1121.6 838.19 1120.97 838.25 1120.31 838.31 C1119.48 838.39 1118.66 838.48 1117.81 838.56 C1116.98 838.65 1116.16 838.73 1115.31 838.81 C1113.26 838.92 1113.26 838.92 1112.24 840.13 C1109.8 840.23 1107.38 840.26 1104.94 840.25 C1103.77 840.25 1103.77 840.25 1102.57 840.26 C1099.92 840.26 1097.27 840.26 1094.62 840.25 C1092.71 840.25 1090.8 840.25 1088.89 840.26 C1083.59 840.26 1078.28 840.26 1072.98 840.25 C1067.23 840.25 1061.48 840.26 1055.73 840.26 C1045.63 840.26 1035.54 840.26 1025.44 840.26 C1014.6 840.26 1003.76 840.26 992.93 840.26 C992.24 840.26 991.56 840.26 990.86 840.26 C988.07 840.26 985.29 840.26 982.51 840.26 C956.56 840.27 930.61 840.27 904.65 840.26 C903.89 840.26 903.12 840.26 902.32 840.26 C901.17 840.26 901.17 840.26 899.99 840.26 C876.53 840.26 853.07 840.26 829.61 840.26 C828.04 840.26 826.47 840.26 824.9 840.26 C818.6 840.26 812.29 840.26 805.98 840.26 C788.36 840.26 770.73 840.26 753.1 840.26 C751.9 840.26 751.9 840.26 750.67 840.26 C725.07 840.26 699.48 840.26 673.89 840.26 C673.06 840.26 672.23 840.26 671.37 840.26 C657.88 840.26 644.39 840.26 630.91 840.26 C577.42 840.25 523.92 840.25 470.43 840.26 C456.96 840.26 443.48 840.26 430 840.26 C429.17 840.26 428.34 840.26 427.49 840.26 C401.92 840.26 376.36 840.26 350.79 840.26 C349.59 840.26 349.59 840.26 348.36 840.26 C330.75 840.26 313.14 840.26 295.53 840.26 C289.23 840.26 282.93 840.26 276.63 840.26 C275.06 840.26 273.5 840.26 271.93 840.26 C248.48 840.26 225.02 840.26 201.57 840.26 C200.42 840.26 200.42 840.26 199.24 840.26 C198.09 840.26 198.09 840.26 196.91 840.26 C171.04 840.27 145.16 840.26 119.28 840.26 C116.51 840.26 113.73 840.26 110.95 840.26 C110.27 840.26 109.59 840.26 108.89 840.26 C97.42 840.26 85.95 840.26 74.49 840.26 C64.53 840.26 54.57 840.26 44.61 840.26 C38.93 840.25 33.24 840.25 27.56 840.26 C22.4 840.26 17.23 840.26 12.07 840.25 C10.21 840.25 8.34 840.25 6.48 840.26 C3.96 840.26 1.44 840.26 -1.07 840.25 C-1.8 840.25 -2.53 840.26 -3.28 840.26 C-6.6 840.25 -9.58 840.11 -12.76 839.13 C-14.17 838.92 -15.59 838.73 -17.01 838.56 C-18.24 838.42 -19.48 838.28 -20.76 838.13 C-20.76 837.47 -20.76 836.81 -20.76 836.13 C-22.41 835.8 -24.06 835.47 -25.76 835.13 C-25.76 834.47 -25.76 833.81 -25.76 833.13 C-26.31 833.33 -26.87 833.54 -27.44 833.75 C-30.42 834.23 -32.08 833.39 -34.76 832.13 C-34.76 831.47 -34.76 830.81 -34.76 830.13 C-36.08 830.13 -37.4 830.13 -38.76 830.13 C-38.76 829.47 -38.76 828.81 -38.76 828.13 C-39.33 828.33 -39.91 828.54 -40.51 828.75 C-43.28 829.21 -44.4 828.56 -46.76 827.13 C-46.76 826.47 -46.76 825.81 -46.76 825.13 C-47.33 824.88 -47.91 824.63 -48.51 824.38 C-50.76 823.13 -50.76 823.13 -52.63 821.19 C-55.11 818.79 -57.63 817.55 -60.76 816.13 C-60.76 815.47 -60.76 814.81 -60.76 814.13 C-61.42 814.13 -62.08 814.13 -62.76 814.13 C-62.76 813.47 -62.76 812.81 -62.76 812.13 C-63.75 811.8 -64.74 811.47 -65.76 811.13 C-67.29 809.2 -67.29 809.2 -68.82 806.81 C-69.58 805.64 -69.58 805.64 -70.35 804.45 C-71.76 802.13 -71.76 802.13 -72.82 799.9 C-73.63 797.95 -73.63 797.95 -75.76 797.13 C-76.96 795.27 -78.09 793.36 -79.19 791.44 C-79.79 790.4 -80.39 789.37 -81 788.3 C-86.17 778.94 -86.17 778.94 -85.76 773.13 C-86.42 772.8 -87.08 772.47 -87.76 772.13 C-88.13 769.8 -88.46 767.47 -88.76 765.13 C-89.09 764.8 -89.42 764.47 -89.76 764.13 C-89.85 762.62 -89.88 761.1 -89.88 759.59 C-89.88 758.6 -89.89 757.61 -89.89 756.6 C-89.89 755.49 -89.88 754.39 -89.88 753.26 C-89.88 752.1 -89.88 750.93 -89.88 749.74 C-89.89 746.48 -89.88 743.22 -89.88 739.97 C-89.88 736.43 -89.88 732.9 -89.88 729.37 C-89.88 723.17 -89.88 716.97 -89.88 710.77 C-89.87 701.55 -89.87 692.34 -89.87 683.12 C-89.87 667.61 -89.87 652.11 -89.86 636.61 C-89.86 621.25 -89.85 605.89 -89.85 590.53 C-89.85 589.58 -89.85 588.62 -89.85 587.64 C-89.85 582.8 -89.85 577.95 -89.85 573.11 C-89.85 538.78 -89.84 504.44 -89.83 470.11 C-89.82 436.74 -89.82 403.38 -89.81 370.02 C-89.81 368.99 -89.81 367.96 -89.81 366.9 C-89.81 356.58 -89.81 346.26 -89.81 335.94 C-89.81 314.91 -89.8 293.89 -89.8 272.86 C-89.8 271.89 -89.8 270.93 -89.8 269.93 C-89.79 205.33 -89.77 140.73 -89.76 76.13 C-89.1 76.13 -88.44 76.13 -87.76 76.13 C-87.91 74.27 -87.91 74.27 -88.07 72.38 C-88.09 65.99 -85.41 60.82 -82.76 55.13 C-82.15 53.71 -81.54 52.3 -80.94 50.88 C-80.55 49.97 -80.16 49.06 -79.76 48.13 C-79.1 48.13 -78.44 48.13 -77.76 48.13 C-77.76 47.47 -77.76 46.81 -77.76 46.13 C-77.1 46.13 -76.44 46.13 -75.76 46.13 C-75.55 45.28 -75.34 44.44 -75.13 43.56 C-73.4 39.22 -70.88 36.54 -67.76 33.13 C-67.21 32.46 -66.66 31.8 -66.09 31.11 C-62.6 26.92 -59.03 23.58 -54.55 20.45 C-52.72 19.17 -52.72 19.17 -51.21 17.56 C-48.69 15.07 -45.34 13.13 -41.76 13.13 C-41.76 12.47 -41.76 11.81 -41.76 11.13 C-39.78 10.47 -37.8 9.81 -35.76 9.13 C-35.76 8.8 -35.76 8.47 -35.76 8.13 C-33.78 8.13 -31.8 8.13 -29.76 8.13 C-29.76 7.47 -29.76 6.81 -29.76 6.13 C-27.12 5.8 -24.48 5.47 -21.76 5.13 C-21.76 4.47 -21.76 3.81 -21.76 3.13 C-18.79 3.13 -15.82 3.13 -12.76 3.13 C-12.76 2.47 -12.76 1.81 -12.76 1.13 C-8.49 0.09 -4.36 -0.01 0 0 Z M1172.24 42.13 C1173.24 44.13 1173.24 44.13 1173.24 44.13 Z M1179.24 54.13 C1180.24 56.13 1180.24 56.13 1180.24 56.13 Z M1100.24 838.13 C1100.24 838.46 1100.24 838.79 1100.24 839.13 C1104.2 839.13 1108.16 839.13 1112.24 839.13 C1112.24 838.8 1112.24 838.47 1112.24 838.13 C1108.28 838.13 1104.32 838.13 1100.24 838.13 Z " fill="#FA4A53" transform="translate(89.75708907842636,218.87350016832352)"/>
<path d="M0 0 C0.78 -0 1.56 -0 2.36 -0 C4.99 -0.01 7.61 -0.01 10.24 -0 C12.14 -0 14.05 -0.01 15.95 -0.01 C21.21 -0.01 26.48 -0.01 31.74 -0.01 C37.45 -0.01 43.17 -0.01 48.88 -0.01 C58.91 -0.02 68.93 -0.02 78.95 -0.02 C89.71 -0.02 100.47 -0.02 111.23 -0.02 C111.91 -0.02 112.59 -0.02 113.29 -0.02 C116.05 -0.02 118.82 -0.03 121.58 -0.03 C150.45 -0.04 179.31 -0.04 208.18 -0.04 C211.29 -0.04 214.39 -0.04 217.5 -0.04 C218.27 -0.04 219.04 -0.04 219.84 -0.04 C236.92 -0.04 254 -0.04 271.08 -0.05 C278.11 -0.05 285.14 -0.05 292.17 -0.05 C293.34 -0.05 293.34 -0.05 294.53 -0.05 C339.05 -0.06 383.57 -0.06 428.09 -0.06 C429.75 -0.06 431.42 -0.06 433.08 -0.06 C440.61 -0.06 448.13 -0.06 455.66 -0.06 C459.01 -0.06 462.37 -0.06 465.72 -0.06 C467.4 -0.06 469.08 -0.06 470.76 -0.06 C523.88 -0.06 577 -0.07 630.11 -0.08 C643.5 -0.08 656.88 -0.09 670.27 -0.09 C671.09 -0.09 671.91 -0.09 672.76 -0.09 C698.15 -0.1 723.54 -0.1 748.93 -0.1 C750.13 -0.1 750.13 -0.1 751.35 -0.1 C768.84 -0.1 786.33 -0.1 803.83 -0.1 C810.08 -0.1 816.34 -0.1 822.6 -0.1 C824.16 -0.1 825.71 -0.1 827.27 -0.1 C852.1 -0.1 876.93 -0.11 901.76 -0.12 C926.77 -0.12 951.77 -0.13 976.77 -0.12 C980.22 -0.12 983.67 -0.12 987.12 -0.12 C987.8 -0.12 988.48 -0.12 989.18 -0.12 C1000.56 -0.12 1011.94 -0.12 1023.33 -0.13 C1033.22 -0.13 1043.11 -0.13 1052.99 -0.13 C1058.64 -0.12 1064.28 -0.12 1069.92 -0.13 C1075.05 -0.14 1080.18 -0.13 1085.31 -0.13 C1087.16 -0.12 1089.01 -0.12 1090.86 -0.13 C1093.36 -0.14 1095.86 -0.13 1098.36 -0.12 C1099.08 -0.13 1099.8 -0.13 1100.54 -0.14 C1104.83 -0.11 1108.24 0.62 1112.24 2.13 C1114.87 2.7 1117.48 3.25 1120.12 3.75 C1120.81 3.89 1121.49 4.02 1122.2 4.16 C1123.88 4.48 1125.56 4.81 1127.24 5.13 C1127.24 5.79 1127.24 6.45 1127.24 7.13 C1127.94 7.29 1128.65 7.44 1129.37 7.61 C1135.67 9.16 1141.15 11 1146.24 15.13 C1146.57 15.79 1146.9 16.45 1147.24 17.13 C1148.56 17.82 1149.9 18.49 1151.24 19.13 C1152.78 20.08 1154.3 21.06 1155.81 22.06 C1156.57 22.57 1157.33 23.07 1158.12 23.59 C1160.06 24.99 1161.7 26.31 1163.24 28.13 C1163.24 28.79 1163.24 29.45 1163.24 30.13 C1164.23 30.46 1165.22 30.79 1166.24 31.13 C1166.57 32.78 1166.9 34.43 1167.24 36.13 C1168.23 36.46 1169.22 36.79 1170.24 37.13 C1170.24 38.12 1170.24 39.11 1170.24 40.13 C1171.14 40.47 1171.14 40.47 1172.06 40.81 C1174.9 42.52 1175.66 44.21 1177.24 47.13 C1177.88 48.05 1177.88 48.05 1178.54 48.99 C1181.75 53.64 1182.83 56.47 1182.24 62.13 C1182.9 62.13 1183.56 62.13 1184.24 62.13 C1183.91 63.45 1183.58 64.77 1183.24 66.13 C959.83 65.8 736.42 65.47 506.24 65.13 C506.24 172.38 506.24 279.63 506.24 390.13 C505.17 440.69 505.17 440.69 498.31 447.38 C497.64 448.04 496.97 448.71 496.28 449.39 C493.05 452.15 490.41 453.38 486.15 453.38 C485.34 453.39 484.53 453.39 483.69 453.4 C482.36 453.39 482.36 453.39 481 453.38 C480.05 453.39 479.1 453.39 478.12 453.39 C474.91 453.4 471.7 453.4 468.49 453.39 C466.17 453.4 463.86 453.4 461.54 453.41 C455.83 453.42 450.12 453.42 444.41 453.42 C437.57 453.42 430.73 453.42 423.89 453.43 C409.71 453.45 395.53 453.46 381.34 453.46 C370.39 453.46 359.44 453.47 348.49 453.47 C345.34 453.47 342.19 453.48 339.04 453.48 C337.86 453.48 337.86 453.48 336.66 453.48 C314.63 453.49 292.59 453.5 270.55 453.5 C269.72 453.5 268.89 453.5 268.03 453.5 C263.82 453.5 259.61 453.5 255.4 453.5 C254.56 453.5 253.72 453.5 252.86 453.5 C251.17 453.5 249.48 453.5 247.78 453.5 C221.46 453.5 195.14 453.51 168.81 453.54 C139.25 453.57 109.69 453.59 80.12 453.58 C76.97 453.58 73.82 453.58 70.67 453.58 C69.89 453.58 69.12 453.58 68.32 453.58 C55.82 453.58 43.33 453.6 30.83 453.61 C18.27 453.63 5.72 453.63 -6.84 453.62 C-13.65 453.61 -20.45 453.61 -27.25 453.63 C-33.48 453.65 -39.71 453.64 -45.93 453.63 C-48.19 453.62 -50.44 453.63 -52.7 453.64 C-55.76 453.65 -58.82 453.64 -61.88 453.62 C-63.2 453.64 -63.2 453.64 -64.54 453.65 C-73.24 453.55 -79.78 450.36 -86.35 444.79 C-89.66 440.89 -90.01 436.82 -90 431.86 C-90.01 430.59 -90.01 429.32 -90.02 428.01 C-90.01 426.6 -90 425.19 -90 423.78 C-90 422.28 -90 420.79 -90 419.29 C-90.01 415.17 -90 411.06 -89.99 406.94 C-89.98 402.5 -89.98 398.07 -89.99 393.63 C-89.99 385.94 -89.98 378.25 -89.97 370.56 C-89.95 359.44 -89.95 348.32 -89.94 337.2 C-89.94 319.16 -89.93 301.12 -89.91 283.09 C-89.89 265.56 -89.88 248.04 -89.87 230.51 C-89.87 229.43 -89.87 228.35 -89.87 227.24 C-89.86 221.82 -89.86 216.41 -89.86 210.99 C-89.84 166.03 -89.8 121.08 -89.76 76.13 C-89.1 76.13 -88.44 76.13 -87.76 76.13 C-87.91 74.27 -87.91 74.27 -88.07 72.38 C-88.09 65.99 -85.41 60.82 -82.76 55.13 C-82.15 53.71 -81.54 52.3 -80.94 50.88 C-80.55 49.97 -80.16 49.06 -79.76 48.13 C-79.1 48.13 -78.44 48.13 -77.76 48.13 C-77.76 47.47 -77.76 46.81 -77.76 46.13 C-77.1 46.13 -76.44 46.13 -75.76 46.13 C-75.55 45.28 -75.34 44.44 -75.13 43.56 C-73.4 39.22 -70.88 36.54 -67.76 33.13 C-67.21 32.46 -66.66 31.8 -66.09 31.11 C-62.6 26.92 -59.03 23.58 -54.55 20.45 C-52.72 19.17 -52.72 19.17 -51.21 17.56 C-48.69 15.07 -45.34 13.13 -41.76 13.13 C-41.76 12.47 -41.76 11.81 -41.76 11.13 C-39.78 10.47 -37.8 9.81 -35.76 9.13 C-35.76 8.8 -35.76 8.47 -35.76 8.13 C-33.78 8.13 -31.8 8.13 -29.76 8.13 C-29.76 7.47 -29.76 6.81 -29.76 6.13 C-27.12 5.8 -24.48 5.47 -21.76 5.13 C-21.76 4.47 -21.76 3.81 -21.76 3.13 C-18.79 3.13 -15.82 3.13 -12.76 3.13 C-12.76 2.47 -12.76 1.81 -12.76 1.13 C-8.49 0.09 -4.36 -0.01 0 0 Z M1172.24 42.13 C1173.24 44.13 1173.24 44.13 1173.24 44.13 Z M1179.24 54.13 C1180.24 56.13 1180.24 56.13 1180.24 56.13 Z " fill="#3A4599" transform="translate(89.75708907842636,218.87350016832352)"/>
<path d="M0 0 C422.4 0 844.8 0 1280 0 C1280 38.94 1280 77.88 1280 118 C1279.34 118.66 1278.68 119.32 1278 120 C1277.38 122.58 1276.98 125.17 1276.56 127.79 C1276.38 128.52 1276.19 129.25 1276 130 C1275.34 130.33 1274.68 130.66 1274 131 C1273.4 133.54 1273.04 136.07 1272.66 138.65 C1272 141 1272 141 1269 143 C1268.34 142.67 1267.68 142.34 1267 142 C1267.33 143.98 1267.66 145.96 1268 148 C1264.25 151 1264.25 151 1262 151 C1261.71 151.58 1261.42 152.15 1261.12 152.75 C1260.45 154.11 1259.76 155.46 1259.06 156.81 C1257.6 159.83 1256.31 162.91 1255 166 C1254.34 166 1253.68 166 1253 166 C1253 166.66 1253 167.32 1253 168 C1252.34 168 1251.68 168 1251 168 C1251 168.66 1251 169.32 1251 170 C1249.39 171.15 1249.39 171.15 1247.25 172.38 C1244.03 174.3 1241.61 176.3 1239 179 C1235.94 181.23 1234.18 181.98 1230.38 182.44 C1226.94 182.63 1226.94 182.63 1225.38 185 C1224.92 185.66 1224.47 186.32 1224 187 C1220.13 188.36 1216.96 187.83 1213 187 C1213.33 187.99 1213.66 188.98 1214 190 C1213.34 190 1212.68 190 1212 190 C1212 190.66 1212 191.32 1212 192 C1211.36 192.06 1210.72 192.12 1210.07 192.18 C1209.24 192.27 1208.41 192.35 1207.56 192.44 C1206.74 192.52 1205.92 192.6 1205.07 192.68 C1203.01 192.79 1203.01 192.79 1202 194 C1199.55 194.1 1197.14 194.13 1194.69 194.13 C1193.52 194.13 1193.52 194.13 1192.33 194.13 C1189.68 194.13 1187.03 194.13 1184.38 194.13 C1182.47 194.13 1180.56 194.13 1178.65 194.13 C1173.34 194.13 1168.04 194.13 1162.74 194.13 C1156.98 194.13 1151.23 194.13 1145.48 194.13 C1135.39 194.14 1125.29 194.14 1115.2 194.13 C1104.36 194.13 1093.52 194.13 1082.68 194.13 C1082 194.13 1081.32 194.13 1080.61 194.13 C1077.83 194.13 1075.05 194.13 1072.26 194.13 C1046.31 194.14 1020.36 194.14 994.41 194.14 C993.64 194.14 992.87 194.14 992.08 194.14 C990.92 194.14 990.92 194.14 989.74 194.14 C966.28 194.13 942.82 194.13 919.36 194.13 C917.8 194.13 916.23 194.13 914.66 194.13 C908.35 194.13 902.05 194.13 895.74 194.14 C878.11 194.14 860.49 194.14 842.86 194.14 C841.65 194.14 841.65 194.14 840.43 194.14 C814.83 194.14 789.24 194.14 763.64 194.13 C762.81 194.13 761.98 194.13 761.13 194.13 C747.64 194.13 734.15 194.13 720.66 194.13 C667.17 194.13 613.68 194.13 560.19 194.13 C546.71 194.13 533.23 194.13 519.76 194.13 C518.93 194.13 518.1 194.13 517.24 194.13 C491.68 194.14 466.12 194.14 440.55 194.14 C439.35 194.14 439.35 194.14 438.12 194.14 C420.51 194.14 402.9 194.14 385.29 194.13 C378.99 194.13 372.69 194.13 366.39 194.13 C364.82 194.13 363.25 194.13 361.69 194.13 C338.23 194.13 314.78 194.13 291.33 194.14 C290.56 194.14 289.79 194.14 289 194.14 C287.84 194.14 287.84 194.14 286.67 194.14 C260.79 194.14 234.92 194.14 209.04 194.13 C206.26 194.13 203.49 194.13 200.71 194.13 C200.03 194.13 199.35 194.13 198.65 194.13 C187.18 194.13 175.71 194.13 164.24 194.13 C154.28 194.14 144.33 194.13 134.37 194.13 C128.68 194.13 123 194.13 117.32 194.13 C112.15 194.13 106.99 194.13 101.83 194.13 C99.96 194.13 98.1 194.13 96.23 194.13 C93.72 194.13 91.2 194.13 88.68 194.13 C87.95 194.13 87.23 194.13 86.47 194.13 C83.16 194.12 80.17 193.98 77 193 C75.59 192.79 74.17 192.6 72.75 192.44 C71.51 192.29 70.28 192.15 69 192 C69 191.34 69 190.68 69 190 C67.35 189.67 65.7 189.34 64 189 C64 188.34 64 187.68 64 187 C63.44 187.21 62.89 187.41 62.31 187.62 C59.34 188.11 57.68 187.27 55 186 C55 185.34 55 184.68 55 184 C53.68 184 52.36 184 51 184 C51 183.34 51 182.68 51 182 C50.42 182.21 49.84 182.41 49.25 182.62 C46.48 183.09 45.35 182.43 43 181 C43 180.34 43 179.68 43 179 C42.13 178.63 42.13 178.63 41.25 178.25 C39 177 39 177 37.12 175.06 C34.65 172.66 32.13 171.42 29 170 C29 169.34 29 168.68 29 168 C28.34 168 27.68 168 27 168 C27 167.34 27 166.68 27 166 C26.01 165.67 25.02 165.34 24 165 C22.46 163.07 22.46 163.07 20.94 160.69 C20.43 159.91 19.92 159.13 19.4 158.32 C18 156 18 156 16.94 153.77 C16.12 151.82 16.12 151.82 14 151 C12.8 149.14 11.66 147.24 10.56 145.31 C9.97 144.28 9.37 143.24 8.75 142.18 C3.58 132.82 3.58 132.82 4 127 C3.34 126.67 2.68 126.34 2 126 C1.63 123.67 1.29 121.34 1 119 C0.67 118.67 0.34 118.34 0 118 C0 79.06 0 40.12 0 0 Z M1190 192 C1190 192.33 1190 192.66 1190 193 C1193.96 193 1197.92 193 1202 193 C1202 192.67 1202 192.34 1202 192 C1198.04 192 1194.08 192 1190 192 Z " fill="#F1F2F3" transform="translate(0,865)"/>
<path d="M0 0 C64.5 -0.02 129 -0.03 193.5 -0.04 C194.46 -0.04 195.41 -0.04 196.39 -0.04 C217.12 -0.05 237.85 -0.05 258.58 -0.05 C268.75 -0.05 278.92 -0.05 289.08 -0.05 C290.6 -0.06 290.6 -0.06 292.15 -0.06 C324.96 -0.06 357.78 -0.07 390.59 -0.08 C424.3 -0.09 458.01 -0.09 491.72 -0.09 C496.48 -0.09 501.23 -0.09 505.99 -0.09 C506.92 -0.09 507.86 -0.1 508.83 -0.1 C523.92 -0.1 539.02 -0.1 554.11 -0.11 C569.27 -0.11 584.44 -0.11 599.6 -0.11 C608.61 -0.11 617.63 -0.11 626.65 -0.12 C632.66 -0.12 638.68 -0.12 644.69 -0.12 C648.13 -0.12 651.56 -0.12 654.99 -0.12 C658.68 -0.13 662.37 -0.13 666.06 -0.12 C667.14 -0.13 668.21 -0.13 669.33 -0.13 C670.79 -0.13 670.79 -0.13 672.29 -0.12 C673.13 -0.12 673.98 -0.12 674.85 -0.12 C677 0 677 0 680 1 C680.12 1.7 680.24 2.4 680.37 3.12 C680.62 4.48 680.62 4.48 680.88 5.88 C681.04 6.78 681.2 7.68 681.37 8.62 C681.83 11.17 681.83 11.17 684 13 C684 72.73 684 132.46 684 194 C458.28 194 232.56 194 0 194 C-1.51 190.98 -1.14 187.87 -1.13 184.56 C-1.13 183.78 -1.13 183.01 -1.13 182.21 C-1.14 179.59 -1.13 176.98 -1.13 174.36 C-1.13 172.49 -1.13 170.63 -1.13 168.76 C-1.14 163.67 -1.14 158.58 -1.13 153.5 C-1.13 148.18 -1.13 142.87 -1.14 137.56 C-1.14 128.63 -1.14 119.71 -1.13 110.78 C-1.12 100.45 -1.13 90.12 -1.13 79.79 C-1.14 70.94 -1.14 62.08 -1.13 53.22 C-1.13 47.93 -1.13 42.63 -1.14 37.34 C-1.14 32.36 -1.14 27.38 -1.13 22.41 C-1.13 20.57 -1.13 18.74 -1.13 16.91 C-1.14 14.42 -1.13 11.93 -1.13 9.44 C-1.13 8.71 -1.13 7.98 -1.13 7.22 C-1.11 2.23 -1.11 2.23 0 0 Z " fill="#FB4A53" transform="translate(596,284)"/>
<path d="M0 0 C422.4 0 844.8 0 1280 0 C1280 21.45 1280 42.9 1280 65 C857.6 65 435.2 65 0 65 C0 43.55 0 22.1 0 0 Z " fill="#FB4A53" transform="translate(0,865)"/>
<path d="M0 0 C1.19 1.79 2.38 3.58 3.56 5.38 C8.05 10.2 14.53 13.87 21.19 14.12 C22.53 14.13 23.88 14.13 25.23 14.12 C26.35 14.12 26.35 14.12 27.49 14.12 C30.02 14.12 32.55 14.12 35.08 14.11 C36.91 14.11 38.74 14.11 40.57 14.11 C45.64 14.11 50.72 14.11 55.79 14.1 C61.31 14.1 66.83 14.09 72.35 14.09 C82.08 14.09 91.8 14.08 101.52 14.08 C116.09 14.06 130.65 14.06 145.22 14.05 C152.2 14.05 159.18 14.05 166.15 14.04 C166.86 14.04 167.56 14.04 168.29 14.04 C179.28 14.04 190.28 14.03 201.27 14.03 C202.01 14.03 202.76 14.03 203.53 14.03 C206.55 14.03 209.58 14.02 212.61 14.02 C276.78 13.99 340.95 13.97 405.12 13.97 C408.5 13.97 411.87 13.97 415.25 13.97 C507.63 13.96 600.02 14 774.86 14.22 C776.36 14.22 776.36 14.22 777.9 14.22 C837.72 14.3 897.54 14.39 957.37 14.49 C967.28 14.5 977.19 14.52 987.1 14.53 C1074.5 14.67 1161.89 14.8 1280 15 C1280 36.12 1280 57.24 1280 79 C857.6 79 435.2 79 0 79 C0 52.93 0 26.86 0 0 Z " fill="#F2F2F3" transform="translate(0,657)"/>
<path d="M0 0 C422.4 0 844.8 0 1280 0 C1280 21.12 1280 42.24 1280 64 C857.6 64 435.2 64 0 64 C0 42.88 0 21.76 0 0 Z " fill="#F2F3F4" transform="translate(0,801)"/>
<path d="M0 0 C0.88 -0 1.76 -0 2.67 -0 C5.65 -0.01 8.63 -0.01 11.61 -0 C13.76 -0 15.92 -0.01 18.08 -0.01 C24.04 -0.01 30.01 -0.01 35.98 -0.01 C42.45 -0.01 48.93 -0.01 55.4 -0.01 C66.77 -0.02 78.13 -0.02 89.49 -0.02 C101.69 -0.02 113.88 -0.02 126.08 -0.02 C126.85 -0.02 127.62 -0.02 128.41 -0.02 C131.55 -0.02 134.68 -0.03 137.81 -0.03 C170.53 -0.04 203.25 -0.04 235.96 -0.04 C239.49 -0.04 243.01 -0.04 246.53 -0.04 C247.41 -0.04 248.28 -0.04 249.18 -0.04 C268.54 -0.04 287.9 -0.04 307.26 -0.05 C315.22 -0.05 323.19 -0.05 331.16 -0.05 C332.04 -0.05 332.92 -0.05 333.83 -0.05 C384.28 -0.06 434.73 -0.06 485.18 -0.06 C487.07 -0.06 488.96 -0.06 490.84 -0.06 C499.37 -0.06 507.9 -0.06 516.43 -0.06 C520.23 -0.06 524.03 -0.06 527.83 -0.06 C529.74 -0.06 531.64 -0.06 533.54 -0.06 C593.75 -0.06 653.95 -0.07 714.15 -0.08 C729.33 -0.08 744.5 -0.09 759.67 -0.09 C761.07 -0.09 761.07 -0.09 762.5 -0.09 C791.28 -0.1 820.05 -0.1 848.83 -0.1 C849.73 -0.1 850.63 -0.1 851.56 -0.1 C871.38 -0.1 891.2 -0.1 911.02 -0.1 C918.12 -0.1 925.21 -0.1 932.3 -0.1 C934.06 -0.1 935.83 -0.1 937.59 -0.1 C965.74 -0.1 993.88 -0.11 1022.03 -0.12 C1050.36 -0.12 1078.7 -0.13 1107.03 -0.12 C1110.94 -0.12 1114.85 -0.12 1118.76 -0.12 C1119.91 -0.12 1119.91 -0.12 1121.09 -0.12 C1133.25 -0.12 1145.42 -0.12 1157.59 -0.13 C1169.53 -0.13 1181.48 -0.13 1193.42 -0.13 C1199.82 -0.12 1206.22 -0.12 1212.62 -0.13 C1218.43 -0.14 1224.23 -0.13 1230.04 -0.13 C1232.14 -0.12 1234.24 -0.12 1236.34 -0.13 C1239.17 -0.14 1242 -0.13 1244.83 -0.12 C1245.66 -0.13 1246.48 -0.13 1247.33 -0.14 C1251.18 -0.11 1253.01 -0.06 1256.29 2.13 C1256.04 3.75 1255.76 5.38 1255.48 7 C1255.33 7.91 1255.18 8.81 1255.02 9.74 C1254.29 12.13 1254.29 12.13 1251.29 14.13 C1250.63 13.8 1249.97 13.47 1249.29 13.13 C1249.62 15.11 1249.95 17.09 1250.29 19.13 C1246.54 22.13 1246.54 22.13 1244.29 22.13 C1244 22.7 1243.71 23.28 1243.42 23.88 C1242.74 25.23 1242.05 26.59 1241.35 27.94 C1239.89 30.96 1238.6 34.04 1237.29 37.13 C1236.63 37.13 1235.97 37.13 1235.29 37.13 C1235.29 37.79 1235.29 38.45 1235.29 39.13 C1234.63 39.13 1233.97 39.13 1233.29 39.13 C1233.29 39.79 1233.29 40.45 1233.29 41.13 C1231.68 42.27 1231.68 42.27 1229.54 43.5 C1226.32 45.42 1223.9 47.42 1221.29 50.13 C1218.23 52.36 1216.47 53.1 1212.67 53.56 C1209.23 53.75 1209.23 53.75 1207.67 56.13 C1207.21 56.79 1206.76 57.45 1206.29 58.13 C1202.42 59.49 1199.25 58.96 1195.29 58.13 C1195.62 59.12 1195.95 60.11 1196.29 61.13 C1195.63 61.13 1194.97 61.13 1194.29 61.13 C1194.29 61.79 1194.29 62.45 1194.29 63.13 C1193.65 63.19 1193.01 63.25 1192.36 63.31 C1191.53 63.39 1190.7 63.48 1189.85 63.56 C1189.03 63.65 1188.21 63.73 1187.36 63.81 C1185.3 63.92 1185.3 63.92 1184.29 65.13 C1181.85 65.23 1179.43 65.26 1176.98 65.25 C1175.81 65.25 1175.81 65.25 1174.62 65.26 C1171.97 65.26 1169.32 65.26 1166.67 65.25 C1164.76 65.25 1162.85 65.25 1160.94 65.26 C1155.63 65.26 1150.33 65.26 1145.03 65.25 C1139.28 65.25 1133.52 65.26 1127.77 65.26 C1117.68 65.26 1107.58 65.26 1097.49 65.26 C1086.65 65.26 1075.81 65.26 1064.97 65.26 C1064.29 65.26 1063.61 65.26 1062.9 65.26 C1060.12 65.26 1057.34 65.26 1054.55 65.26 C1028.6 65.27 1002.65 65.27 976.7 65.26 C975.93 65.26 975.16 65.26 974.37 65.26 C973.21 65.26 973.21 65.26 972.03 65.26 C948.57 65.26 925.11 65.26 901.66 65.26 C900.09 65.26 898.52 65.26 896.95 65.26 C890.64 65.26 884.34 65.26 878.03 65.26 C860.4 65.26 842.78 65.26 825.15 65.26 C823.94 65.26 823.94 65.26 822.72 65.26 C797.12 65.26 771.53 65.26 745.93 65.26 C745.1 65.26 744.27 65.26 743.42 65.26 C729.93 65.26 716.44 65.26 702.95 65.26 C649.46 65.25 595.97 65.25 542.48 65.26 C529 65.26 515.53 65.26 502.05 65.26 C501.22 65.26 500.39 65.26 499.53 65.26 C473.97 65.26 448.41 65.26 422.84 65.26 C421.64 65.26 421.64 65.26 420.41 65.26 C402.8 65.26 385.19 65.26 367.58 65.26 C361.28 65.26 354.98 65.26 348.68 65.26 C347.11 65.26 345.54 65.26 343.98 65.26 C320.52 65.26 297.07 65.26 273.62 65.26 C272.47 65.26 272.47 65.26 271.29 65.26 C270.14 65.26 270.14 65.26 268.96 65.26 C243.08 65.27 217.21 65.26 191.33 65.26 C188.55 65.26 185.78 65.26 183 65.26 C182.32 65.26 181.64 65.26 180.94 65.26 C169.47 65.26 158 65.26 146.53 65.26 C136.58 65.26 126.62 65.26 116.66 65.26 C110.97 65.25 105.29 65.25 99.61 65.26 C94.44 65.26 89.28 65.26 84.12 65.25 C82.25 65.25 80.39 65.25 78.53 65.26 C76.01 65.26 73.49 65.26 70.97 65.25 C69.88 65.26 69.88 65.26 68.77 65.26 C65.45 65.25 62.47 65.11 59.29 64.13 C57.88 63.92 56.46 63.73 55.04 63.56 C53.8 63.42 52.57 63.28 51.29 63.13 C51.29 62.47 51.29 61.81 51.29 61.13 C49.64 60.8 47.99 60.47 46.29 60.13 C46.29 59.47 46.29 58.81 46.29 58.13 C45.73 58.33 45.18 58.54 44.6 58.75 C41.63 59.23 39.97 58.39 37.29 57.13 C37.29 56.47 37.29 55.81 37.29 55.13 C35.97 55.13 34.65 55.13 33.29 55.13 C33.29 54.47 33.29 53.81 33.29 53.13 C32.71 53.33 32.14 53.54 31.54 53.75 C28.77 54.21 27.64 53.56 25.29 52.13 C25.29 51.47 25.29 50.81 25.29 50.13 C24.71 49.88 24.14 49.63 23.54 49.38 C21.29 48.13 21.29 48.13 19.42 46.19 C16.94 43.79 14.42 42.55 11.29 41.13 C11.29 40.47 11.29 39.81 11.29 39.13 C10.63 39.13 9.97 39.13 9.29 39.13 C9.29 38.47 9.29 37.81 9.29 37.13 C7.81 36.63 7.81 36.63 6.29 36.13 C4.76 34.2 4.76 34.2 3.23 31.81 C2.72 31.03 2.21 30.25 1.69 29.45 C0.29 27.13 0.29 27.13 -0.77 24.9 C-1.59 22.95 -1.59 22.95 -3.71 22.13 C-4.91 20.27 -6.05 18.36 -7.15 16.44 C-7.74 15.4 -8.34 14.37 -8.96 13.3 C-13.71 4.69 -13.71 4.69 -13.71 1.13 C-9.15 -0.02 -4.67 -0.01 0 0 Z M1172.29 63.13 C1172.29 63.46 1172.29 63.79 1172.29 64.13 C1176.25 64.13 1180.21 64.13 1184.29 64.13 C1184.29 63.8 1184.29 63.47 1184.29 63.13 C1180.33 63.13 1176.37 63.13 1172.29 63.13 Z " fill="#FA4B54" transform="translate(17.709521412849426,993.8735001683235)"/>
<path d="M0 0 C0.33 0.66 0.66 1.32 1 2 C226.72 2 452.44 2 685 2 C685 23.45 685 44.9 685 67 C653.79 67.01 653.79 67.01 641.68 67.01 C640.55 67.01 640.55 67.01 639.39 67.01 C589.51 67.02 539.62 67.04 489.74 67.04 C488.78 67.04 487.81 67.04 486.82 67.04 C465.91 67.05 444.99 67.05 424.07 67.05 C413.81 67.05 403.56 67.05 393.3 67.05 C391.77 67.06 391.77 67.06 390.21 67.06 C357.09 67.06 323.98 67.07 290.87 67.08 C256.86 67.09 222.84 67.09 188.83 67.09 C184.03 67.09 179.23 67.09 174.43 67.09 C173.49 67.09 172.54 67.1 171.57 67.1 C156.33 67.1 141.1 67.1 125.87 67.11 C110.57 67.11 95.27 67.11 79.97 67.11 C70.87 67.11 61.77 67.11 52.67 67.12 C46.6 67.12 40.54 67.12 34.47 67.12 C31 67.12 27.54 67.12 24.07 67.12 C20.35 67.13 16.63 67.13 12.91 67.12 C11.82 67.13 10.73 67.13 9.61 67.13 C8.13 67.13 8.13 67.13 6.63 67.12 C5.35 67.12 5.35 67.12 4.05 67.12 C2 67 2 67 0 66 C0 44.22 0 22.44 0 0 Z " fill="#FB4A53" transform="translate(595,476)"/>
<path d="M0 0 C64.5 -0.02 129 -0.03 193.5 -0.04 C194.46 -0.04 195.41 -0.04 196.39 -0.04 C217.12 -0.05 237.85 -0.05 258.58 -0.05 C268.75 -0.05 278.92 -0.05 289.08 -0.05 C290.6 -0.06 290.6 -0.06 292.15 -0.06 C324.96 -0.06 357.78 -0.07 390.59 -0.08 C424.3 -0.09 458.01 -0.09 491.72 -0.09 C496.48 -0.09 501.23 -0.09 505.99 -0.09 C506.92 -0.09 507.86 -0.1 508.83 -0.1 C523.92 -0.1 539.02 -0.1 554.11 -0.11 C569.27 -0.11 584.44 -0.11 599.6 -0.11 C608.61 -0.11 617.63 -0.11 626.65 -0.12 C632.66 -0.12 638.68 -0.12 644.69 -0.12 C648.13 -0.12 651.56 -0.12 654.99 -0.12 C658.68 -0.13 662.37 -0.13 666.06 -0.12 C667.14 -0.13 668.21 -0.13 669.33 -0.13 C670.79 -0.13 670.79 -0.13 672.29 -0.12 C673.13 -0.12 673.98 -0.12 674.85 -0.12 C677 0 677 0 680 1 C680.12 1.7 680.24 2.4 680.37 3.12 C680.62 4.48 680.62 4.48 680.88 5.88 C681.04 6.78 681.2 7.68 681.37 8.62 C681.83 11.17 681.83 11.17 684 13 C684.24 15.21 684.24 15.21 684.23 18 C684.23 19.04 684.23 20.08 684.23 21.15 C684.22 22.28 684.21 23.41 684.2 24.57 C684.19 26.3 684.19 26.3 684.19 28.06 C684.18 31.75 684.15 35.44 684.12 39.12 C684.11 41.62 684.11 44.12 684.1 46.61 C684.08 52.74 684.04 58.87 684 65 C618.8 65.02 553.61 65.03 488.41 65.04 C486.96 65.04 486.96 65.04 485.49 65.04 C464.54 65.05 443.59 65.05 422.64 65.05 C412.37 65.05 402.09 65.05 391.82 65.05 C390.8 65.06 389.77 65.06 388.72 65.06 C355.55 65.06 322.38 65.07 289.22 65.08 C255.15 65.09 221.08 65.09 187.01 65.09 C182.2 65.09 177.39 65.09 172.59 65.09 C171.64 65.09 170.7 65.1 169.72 65.1 C154.46 65.1 139.2 65.1 123.94 65.11 C108.62 65.11 93.3 65.11 77.97 65.11 C68.86 65.11 59.74 65.11 50.63 65.12 C44.55 65.12 38.47 65.12 32.39 65.12 C28.92 65.12 25.45 65.12 21.98 65.12 C18.26 65.13 14.53 65.13 10.81 65.12 C9.16 65.13 9.16 65.13 7.49 65.13 C6.01 65.13 6.01 65.13 4.51 65.12 C3.23 65.12 3.23 65.12 1.92 65.12 C0 65 0 65 -1 64 C-1.1 62.08 -1.13 60.15 -1.13 58.23 C-1.13 56.37 -1.13 56.37 -1.14 54.49 C-1.14 53.13 -1.14 51.77 -1.13 50.41 C-1.13 49.03 -1.13 47.64 -1.14 46.26 C-1.14 43.35 -1.14 40.45 -1.13 37.55 C-1.12 33.82 -1.13 30.09 -1.13 26.36 C-1.14 23.5 -1.14 20.65 -1.13 17.79 C-1.13 16.41 -1.13 15.04 -1.14 13.66 C-1.14 11.74 -1.13 9.82 -1.13 7.9 C-1.13 6.81 -1.13 5.71 -1.13 4.59 C-1 2 -1 2 0 0 Z " fill="#F2F3F4" transform="translate(596,284)"/>
<path d="M0 0 C0.85 0 1.71 0 2.59 0 C3.57 0 4.55 0 5.56 0 C7.21 0.01 7.21 0.01 8.88 0.01 C10.62 0.02 10.62 0.02 12.38 0.02 C15.62 0.02 18.86 0.03 22.1 0.03 C25.61 0.04 29.12 0.05 32.63 0.05 C38.79 0.06 44.96 0.07 51.12 0.08 C60.28 0.1 69.45 0.11 78.61 0.13 C94.03 0.15 109.44 0.17 124.86 0.2 C140.12 0.23 155.39 0.26 170.66 0.28 C171.61 0.28 172.56 0.28 173.54 0.28 C178.35 0.29 183.17 0.3 187.98 0.31 C222.12 0.36 256.25 0.41 290.39 0.47 C323.56 0.53 356.73 0.59 389.89 0.64 C390.92 0.64 391.94 0.64 392.99 0.64 C403.25 0.66 413.51 0.68 423.77 0.69 C444.68 0.73 465.58 0.76 486.49 0.79 C487.93 0.8 487.93 0.8 489.4 0.8 C539.16 0.88 588.92 0.96 638.68 1.05 C639.38 1.05 640.08 1.05 640.8 1.05 C654.56 1.07 668.32 1.1 682.08 1.12 C682.08 22.24 682.08 43.36 682.08 65.12 C456.36 65.12 230.64 65.12 -1.92 65.12 C-3.28 62.4 -3.05 60.26 -3.05 57.22 C-3.06 55.98 -3.06 54.74 -3.06 53.47 C-3.06 52.11 -3.06 50.76 -3.06 49.4 C-3.06 48.01 -3.06 46.63 -3.06 45.24 C-3.06 42.34 -3.06 39.44 -3.05 36.54 C-3.05 32.81 -3.05 29.08 -3.06 25.35 C-3.06 22.49 -3.06 19.63 -3.06 16.77 C-3.06 15.4 -3.06 14.02 -3.06 12.65 C-3.06 10.73 -3.06 8.81 -3.05 6.9 C-3.05 5.8 -3.05 4.71 -3.05 3.58 C-2.88 0.18 -2.88 0.18 0 0 Z " fill="#F2F3F4" transform="translate(597.9240568317473,541.8779595158994)"/>
<path d="M0 0 C0.85 0 1.71 0 2.59 0 C3.57 0 4.55 0 5.56 0 C7.21 0.01 7.21 0.01 8.88 0.01 C10.62 0.02 10.62 0.02 12.38 0.02 C15.62 0.02 18.86 0.03 22.1 0.03 C25.61 0.04 29.12 0.05 32.63 0.05 C38.79 0.06 44.96 0.07 51.12 0.08 C60.28 0.1 69.45 0.11 78.61 0.13 C94.03 0.15 109.44 0.17 124.86 0.2 C140.12 0.23 155.39 0.26 170.66 0.28 C171.61 0.28 172.56 0.28 173.54 0.28 C178.35 0.29 183.17 0.3 187.98 0.31 C222.12 0.36 256.25 0.41 290.39 0.47 C323.56 0.53 356.73 0.59 389.89 0.64 C390.92 0.64 391.94 0.64 392.99 0.64 C403.25 0.66 413.51 0.68 423.77 0.69 C444.68 0.73 465.58 0.76 486.49 0.79 C487.93 0.8 487.93 0.8 489.4 0.8 C539.16 0.88 588.92 0.96 638.68 1.05 C639.38 1.05 640.08 1.05 640.8 1.05 C654.56 1.07 668.32 1.1 682.08 1.12 C682.08 22.24 682.08 43.36 682.08 65.12 C456.36 65.12 230.64 65.12 -1.92 65.12 C-3.28 62.4 -3.05 60.26 -3.05 57.22 C-3.06 55.98 -3.06 54.74 -3.06 53.47 C-3.06 52.11 -3.06 50.76 -3.06 49.4 C-3.06 48.01 -3.06 46.63 -3.06 45.24 C-3.06 42.34 -3.06 39.44 -3.05 36.54 C-3.05 32.81 -3.05 29.08 -3.06 25.35 C-3.06 22.49 -3.06 19.63 -3.06 16.77 C-3.06 15.4 -3.06 14.02 -3.06 12.65 C-3.06 10.73 -3.06 8.81 -3.05 6.9 C-3.05 5.8 -3.05 4.71 -3.05 3.58 C-2.88 0.18 -2.88 0.18 0 0 Z " fill="#F2F3F4" transform="translate(597.9240568317473,412.8779595158994)"/>
<path d="M0 0 C1.76 -0 3.52 -0 5.28 -0 C6.58 -0 6.58 -0 7.91 -0 C11.42 -0 14.93 -0.01 18.44 -0.01 C20.19 -0.01 21.94 -0.01 23.69 -0.01 C50.83 -0.02 77.96 -0.04 105.1 -0.06 C135.13 -0.08 165.17 -0.1 195.21 -0.1 C198.36 -0.1 201.51 -0.1 204.65 -0.1 C205.43 -0.1 206.2 -0.1 207 -0.1 C219.28 -0.1 231.56 -0.11 243.84 -0.13 C255.97 -0.14 268.09 -0.14 280.22 -0.14 C286.73 -0.13 293.23 -0.13 299.74 -0.15 C305.67 -0.16 311.59 -0.16 317.52 -0.15 C319.66 -0.14 321.79 -0.15 323.92 -0.16 C334.56 -0.2 344.15 0 354.38 3.22 C356.05 3.58 357.71 3.92 359.38 4.22 C359.38 4.88 359.38 5.54 359.38 6.22 C360.09 6.38 360.79 6.54 361.51 6.71 C367.81 8.25 373.29 10.1 378.38 14.22 C378.71 14.88 379.04 15.54 379.38 16.22 C380.7 16.92 382.04 17.58 383.38 18.22 C384.92 19.18 386.44 20.16 387.95 21.16 C388.71 21.67 389.48 22.17 390.26 22.69 C392.2 24.09 393.84 25.41 395.38 27.22 C395.38 27.88 395.38 28.54 395.38 29.22 C396.37 29.55 397.36 29.88 398.38 30.22 C398.71 31.87 399.04 33.52 399.38 35.22 C400.37 35.55 401.36 35.88 402.38 36.22 C402.38 37.21 402.38 38.2 402.38 39.22 C403.28 39.56 403.28 39.56 404.2 39.91 C407.04 41.62 407.8 43.31 409.38 46.22 C410.03 47.14 410.03 47.14 410.68 48.08 C413.89 52.74 414.97 55.57 414.38 61.22 C415.04 61.22 415.7 61.22 416.38 61.22 C416.05 62.54 415.72 63.86 415.38 65.22 C79.77 64.73 79.77 64.73 -262.62 64.22 C-262.95 48.38 -263.28 32.54 -263.62 16.22 C-265.6 13.25 -267.58 10.28 -269.62 7.22 C-270.28 5.9 -270.94 4.58 -271.62 3.22 C-439.26 2.89 -606.9 2.56 -779.62 2.22 C-779.62 1.89 -779.62 1.56 -779.62 1.22 C-692.29 1 -604.97 0.8 0 0 Z M404.38 41.22 C405.38 43.22 405.38 43.22 405.38 43.22 Z M411.38 53.22 C412.38 55.22 412.38 55.22 412.38 55.22 Z " fill="#FA4A53" transform="translate(857.6153182983398,219.775390625)"/>
<path d="M0 0 C0.87 -0 1.74 -0 2.64 -0 C10.55 -0 18.45 -0 26.36 -0.01 C51.81 -0.01 77.26 -0.02 102.71 -0.03 C133.68 -0.05 164.66 -0.06 195.64 -0.06 C198.79 -0.06 201.93 -0.06 205.08 -0.06 C206.25 -0.06 206.25 -0.06 207.43 -0.06 C219.75 -0.06 232.07 -0.06 244.39 -0.07 C256.54 -0.08 268.69 -0.08 280.84 -0.07 C287.36 -0.07 293.89 -0.07 300.42 -0.08 C306.35 -0.09 312.28 -0.09 318.21 -0.08 C320.36 -0.08 322.51 -0.08 324.66 -0.08 C327.55 -0.09 330.44 -0.08 333.34 -0.08 C334.61 -0.08 334.61 -0.08 335.9 -0.09 C341.64 -0.06 341.64 -0.06 343.87 2.17 C337.41 2.92 331.06 3.32 324.55 3.3 C323.67 3.3 322.78 3.3 321.87 3.3 C318.91 3.31 315.95 3.3 312.99 3.3 C310.83 3.3 308.68 3.3 306.52 3.3 C300.59 3.31 294.66 3.31 288.72 3.3 C282.29 3.3 275.85 3.3 269.41 3.31 C257.4 3.31 245.4 3.31 233.4 3.31 C222.1 3.31 210.81 3.31 199.51 3.31 C198.37 3.31 198.37 3.31 197.21 3.31 C194.13 3.31 191.04 3.31 187.95 3.31 C155.91 3.31 123.87 3.31 91.83 3.3 C88.39 3.3 84.96 3.3 81.52 3.3 C80.25 3.3 80.25 3.3 78.94 3.3 C60.94 3.3 42.94 3.3 24.93 3.3 C-61.85 3.29 -148.64 3.27 -565.13 2.67 C-566.17 2.67 -566.17 2.67 -567.22 2.67 C-638.19 2.52 -709.16 2.35 -780.13 2.17 C-780.13 1.84 -780.13 1.51 -780.13 1.17 C-692.82 0.95 -605.5 0.75 0 0 Z " fill="#EB8595" transform="translate(858.1334495544434,219.82720375061035)"/>
<path d="M0 0 C366.96 0 733.92 0 1112 0 C1112 0.33 1112 0.66 1112 1 C745.04 1 378.08 1 0 1 C0 0.67 0 0.34 0 0 Z " fill="#000002" transform="translate(84,1060)"/>
<path d="M0 0 C4 2 4 2 5.05 4.06 C5.28 4.84 5.51 5.63 5.75 6.44 C6.11 7.61 6.11 7.61 6.48 8.81 C7 11 7 11 7 14 C8.68 14.04 8.68 14.04 10.39 14.08 C11.87 14.13 13.34 14.19 14.81 14.25 C15.55 14.26 16.29 14.28 17.05 14.29 C22.55 14.54 22.55 14.54 25.01 17.05 C25.5 18.01 25.5 18.01 26 19 C24.38 20.31 22.75 21.63 21.12 22.94 C20.22 23.67 19.32 24.4 18.38 25.15 C16 27 16 27 14 28 C14.63 33.78 15.65 39.34 17 45 C16.01 45.5 16.01 45.5 15 46 C14.18 45.41 13.36 44.82 12.52 44.21 C10.9 43.09 10.9 43.09 9.25 41.94 C8.18 41.18 7.12 40.43 6.02 39.65 C3.27 37.83 3.27 37.83 0.94 38.03 C-1.65 39.32 -3.91 40.87 -6.25 42.56 C-7.14 43.2 -8.03 43.84 -8.95 44.5 C-9.63 45 -10.3 45.49 -11 46 C-11.99 45.34 -12.98 44.68 -14 44 C-13.87 43.42 -13.73 42.84 -13.6 42.24 C-13.23 40.62 -12.88 39 -12.53 37.38 C-12.11 35.49 -11.6 33.61 -11.06 31.75 C-10.7 28.82 -10.7 28.82 -13 26.5 C-13.99 25.68 -14.98 24.85 -16 24 C-17.27 22.9 -18.54 21.79 -19.81 20.69 C-20.87 19.79 -21.94 18.89 -23 18 C-22 16 -22 16 -19 15 C-14.34 14.56 -9.67 14.3 -5 14 C-3.35 9.38 -1.7 4.76 0 0 Z " fill="#F2F2F3" transform="translate(296,270)"/>
<path d="M0 0 C4 2 4 2 5.23 4.57 C5.55 5.56 5.86 6.54 6.19 7.56 C7.11 11.06 7.11 11.06 9 14 C12.59 14.2 16.18 14.32 19.78 14.43 C23 15 23 15 24.44 17.04 C24.63 17.69 24.81 18.33 25 19 C23.38 20.51 21.75 22 20.12 23.5 C19.22 24.34 18.32 25.17 17.38 26.03 C15 28 15 28 13 28 C13.3 28.96 13.6 29.93 13.91 30.92 C14.29 32.19 14.67 33.45 15.06 34.75 C15.45 36 15.83 37.26 16.22 38.55 C16.93 41.67 17.17 43.09 16 46 C12.46 44.06 9.41 42.36 6.38 39.69 C4.16 37.73 4.16 37.73 1.64 38.2 C-2.1 39.34 -4.72 41.49 -7.82 43.82 C-10 45 -10 45 -12.28 44.68 C-12.85 44.46 -13.41 44.23 -14 44 C-13.87 43.42 -13.73 42.84 -13.6 42.24 C-13.23 40.62 -12.88 39 -12.53 37.38 C-12.11 35.49 -11.6 33.61 -11.06 31.75 C-10.7 28.82 -10.7 28.82 -13 26.5 C-13.99 25.67 -14.98 24.85 -16 24 C-17.27 22.9 -18.54 21.79 -19.81 20.69 C-20.87 19.79 -21.94 18.89 -23 18 C-21.98 16.54 -21.98 16.54 -20 15 C-17.35 14.62 -14.96 14.4 -12.31 14.31 C-8.69 14.16 -8.69 14.16 -5 14 C-3.35 9.38 -1.7 4.76 0 0 Z " fill="#F2F2F3" transform="translate(296,500)"/>
<path d="M0 0 C1.86 0.65 1.86 0.65 4 2 C5.23 4.57 5.23 4.57 6.19 7.56 C7.11 11.06 7.11 11.06 9 14 C12.56 14.2 16.12 14.32 19.68 14.43 C23 15 23 15 24.95 17.04 C25.29 17.69 25.64 18.33 26 19 C24.56 20.13 23.13 21.25 21.69 22.38 C20.49 23.31 20.49 23.31 19.26 24.27 C17.55 25.58 15.79 26.81 14 28 C14.75 33.72 15.83 39.35 17 45 C16.01 45.5 16.01 45.5 15 46 C14.26 45.41 13.53 44.82 12.77 44.21 C11.79 43.46 10.82 42.71 9.81 41.94 C8.85 41.18 7.89 40.43 6.89 39.65 C4.19 37.78 4.19 37.78 1.47 38.03 C-1.48 39.19 -3.76 40.69 -6.31 42.56 C-7.64 43.52 -7.64 43.52 -8.99 44.5 C-9.65 45 -10.32 45.49 -11 46 C-12.32 44.68 -13.64 43.36 -15 42 C-14.34 42 -13.68 42 -13 42 C-12 37.67 -11.2 33.44 -11 29 C-12.79 25.88 -12.79 25.88 -16 24 C-17.28 22.91 -18.55 21.8 -19.81 20.69 C-20.87 19.79 -21.94 18.89 -23 18 C-22 16 -22 16 -19 15 C-16.61 14.93 -14.21 14.92 -11.81 14.94 C-10.54 14.95 -9.27 14.96 -7.96 14.96 C-6.49 14.98 -6.49 14.98 -5 15 C-4.71 14 -4.71 14 -4.41 12.99 C-1.83 4.22 -1.83 4.22 0 0 Z " fill="#F2F3F4" transform="translate(58,270)"/>
<path d="M0 0 C1.86 0.65 1.86 0.65 4 2 C5.23 4.57 5.23 4.57 6.19 7.56 C7.11 11.06 7.11 11.06 9 14 C12.59 14.2 16.18 14.32 19.78 14.43 C23 15 23 15 24.44 17.04 C24.63 17.69 24.81 18.33 25 19 C24.19 19.57 23.39 20.14 22.56 20.72 C21.53 21.49 20.5 22.27 19.44 23.06 C18.4 23.82 17.37 24.57 16.31 25.35 C13.6 27.85 13.6 27.85 14.09 31.47 C14.39 32.63 14.69 33.8 15 35 C15.18 35.95 15.35 36.89 15.54 37.87 C15.71 38.72 15.88 39.56 16.06 40.44 C16.24 41.3 16.42 42.17 16.6 43.06 C16.8 44.02 16.8 44.02 17 45 C12 44.31 9.14 42.16 5.18 39.18 C3.13 37.82 3.13 37.82 1.05 38.1 C-1.64 39.28 -3.87 40.84 -6.25 42.56 C-7.14 43.2 -8.03 43.84 -8.95 44.5 C-9.63 45 -10.3 45.49 -11 46 C-11.99 45.34 -12.98 44.68 -14 44 C-13.87 43.42 -13.73 42.84 -13.6 42.24 C-13.23 40.62 -12.88 39 -12.53 37.38 C-12.11 35.49 -11.6 33.61 -11.06 31.75 C-10.71 28.82 -10.71 28.82 -13 26.44 C-16.25 23.8 -19.55 21.37 -23 19 C-22.5 17.51 -22.5 17.51 -22 16 C-18.93 14.47 -15.73 14.9 -12.38 14.94 C-11.32 14.94 -11.32 14.94 -10.23 14.95 C-8.49 14.96 -6.74 14.98 -5 15 C-4.81 14.25 -4.61 13.5 -4.41 12.73 C-4.15 11.75 -3.89 10.76 -3.62 9.75 C-3.24 8.29 -3.24 8.29 -2.85 6.8 C-2.1 4.34 -1.23 2.24 0 0 Z " fill="#F2F3F4" transform="translate(415,500)"/>
<path d="M0 0 C1.86 0.65 1.86 0.65 4 2 C5.23 4.57 5.23 4.57 6.19 7.56 C7.11 11.06 7.11 11.06 9 14 C12.56 14.2 16.12 14.32 19.68 14.43 C23 15 23 15 26 19 C20.06 23.46 20.06 23.46 14 28 C14.31 29.53 14.62 31.05 14.94 32.62 C15.12 33.54 15.3 34.45 15.48 35.38 C15.89 37.43 16.31 39.46 16.75 41.5 C16.83 42.33 16.91 43.15 17 44 C16.34 44.66 15.68 45.32 15 46 C14.18 45.41 13.36 44.82 12.52 44.21 C10.9 43.09 10.9 43.09 9.25 41.94 C8.18 41.18 7.12 40.43 6.02 39.65 C3.27 37.83 3.27 37.83 0.94 38.03 C-1.65 39.32 -3.91 40.87 -6.25 42.56 C-7.14 43.2 -8.03 43.84 -8.95 44.5 C-9.63 45 -10.3 45.49 -11 46 C-11.33 45.34 -11.66 44.68 -12 44 C-12.66 44 -13.32 44 -14 44 C-13.77 43.18 -13.54 42.36 -13.31 41.52 C-13.02 40.44 -12.73 39.36 -12.44 38.25 C-12.15 37.18 -11.86 36.12 -11.56 35.02 C-11.02 32.11 -10.89 30.69 -12 28 C-15.34 24.28 -19.13 21.15 -23 18 C-22 16 -22 16 -19 15 C-16.77 14.78 -14.54 14.59 -12.31 14.44 C-11.13 14.35 -9.95 14.27 -8.74 14.18 C-7.83 14.12 -6.93 14.06 -6 14 C-2.88 7.05 -2.88 7.05 0 0 Z " fill="#F2F2F3" transform="translate(58,500)"/>
<path d="M0 0 C2.75 2.38 3.89 4.69 5.19 8.06 C5.53 8.94 5.88 9.82 6.23 10.72 C7 13 7 13 7 15 C7.96 15.05 8.93 15.1 9.92 15.15 C11.19 15.22 12.45 15.3 13.75 15.38 C15 15.44 16.26 15.51 17.55 15.59 C20.61 15.95 22.42 16.4 25 18 C23.8 21.59 22.53 22.42 19.56 24.69 C18.76 25.31 17.96 25.93 17.13 26.57 C15 28 15 28 13 28 C13.2 28.94 13.2 28.94 13.4 29.91 C14.51 35.26 15.4 40.56 16 46 C11.57 45.49 9.33 43.89 6 41 C3.35 38.79 3.35 38.79 1.19 39.12 C-3.33 40.93 -7.16 44.05 -11 47 C-12.32 46.34 -13.64 45.68 -15 45 C-14.66 43.82 -14.66 43.82 -14.31 42.62 C-12.68 36.66 -11.49 32.04 -13 26 C-13.72 25.75 -14.44 25.5 -15.19 25.25 C-18.3 23.87 -20.53 22.33 -23 20 C-23 19.01 -23 18.02 -23 17 C-19 16.04 -15.29 15.9 -11.19 15.94 C-10.03 15.95 -8.86 15.96 -7.67 15.96 C-6.79 15.98 -5.91 15.99 -5 16 C-4.88 15.12 -4.76 14.24 -4.63 13.34 C-4.04 10.19 -3.17 7.57 -1.94 4.62 C-1.58 3.75 -1.21 2.88 -0.84 1.98 C-0.56 1.32 -0.29 0.67 0 0 Z " fill="#F2F3F4" transform="translate(237,460)"/>
<path d="M0 0 C2.6 0.99 3.76 1.54 5.05 4.06 C5.28 4.84 5.51 5.63 5.75 6.44 C6.11 7.61 6.11 7.61 6.48 8.81 C7 11 7 11 7 14 C11.28 15.14 15.31 15.01 19.7 14.84 C22 15 22 15 25 17 C23.06 22.22 18.48 25.02 14 28 C14.46 32.26 15.02 36.25 16.19 40.38 C16.46 41.57 16.72 42.77 17 44 C16.34 44.66 15.68 45.32 15 46 C14.18 45.41 13.36 44.82 12.52 44.21 C10.9 43.09 10.9 43.09 9.25 41.94 C8.18 41.18 7.12 40.43 6.02 39.65 C3.26 37.81 3.26 37.81 0.86 38.06 C-1.35 39.18 -3.06 40.52 -4.94 42.12 C-8.62 45.02 -8.62 45.02 -12 44.88 C-12.99 44.44 -12.99 44.44 -14 44 C-13.87 43.42 -13.73 42.84 -13.6 42.24 C-13.23 40.62 -12.88 39 -12.53 37.38 C-12.11 35.49 -11.6 33.61 -11.06 31.75 C-10.7 28.82 -10.7 28.82 -13 26.5 C-13.99 25.68 -14.98 24.85 -16 24 C-17.27 22.9 -18.54 21.79 -19.81 20.69 C-20.87 19.79 -21.94 18.89 -23 18 C-21.98 16.51 -21.98 16.51 -20 15 C-17.35 14.78 -14.95 14.72 -12.31 14.81 C-11.26 14.83 -11.26 14.83 -10.19 14.85 C-8.46 14.89 -6.73 14.94 -5 15 C-4.81 14.25 -4.61 13.5 -4.41 12.73 C-4.15 11.75 -3.89 10.76 -3.62 9.75 C-3.24 8.29 -3.24 8.29 -2.85 6.8 C-2.1 4.34 -1.23 2.24 0 0 Z " fill="#F2F2F3" transform="translate(534,270)"/>
<path d="M0 0 C1.86 0.65 1.86 0.65 4 2 C5.23 4.57 5.23 4.57 6.19 7.56 C7.11 11.06 7.11 11.06 9 14 C11.35 14.24 13.71 14.41 16.06 14.56 C17.35 14.65 18.64 14.73 19.97 14.82 C20.97 14.88 21.97 14.94 23 15 C23 15.66 23 16.32 23 17 C23.66 17 24.32 17 25 17 C23.53 20.73 21.63 22.1 18.31 24.25 C15.87 25.99 15.87 25.99 14 28 C13.83 31.43 14.02 32.89 15 36 C15.36 37.66 15.72 39.33 16.06 41 C16.37 42.33 16.68 43.67 17 45 C12 44.31 9.14 42.16 5.18 39.18 C3.13 37.82 3.13 37.82 1.05 38.1 C-1.64 39.28 -3.87 40.84 -6.25 42.56 C-7.14 43.2 -8.03 43.84 -8.95 44.5 C-9.63 45 -10.3 45.49 -11 46 C-11.99 45.34 -12.98 44.68 -14 44 C-13.87 43.42 -13.73 42.84 -13.6 42.24 C-13.23 40.62 -12.88 39 -12.53 37.38 C-12.11 35.49 -11.6 33.61 -11.06 31.75 C-10.71 28.82 -10.71 28.82 -13 26.44 C-16.25 23.8 -19.55 21.37 -23 19 C-22.5 17.51 -22.5 17.51 -22 16 C-18.44 14.81 -15.56 14.9 -11.81 14.94 C-10.54 14.95 -9.27 14.96 -7.96 14.96 C-6.49 14.98 -6.49 14.98 -5 15 C-4.81 14.25 -4.61 13.5 -4.41 12.73 C-4.15 11.75 -3.89 10.76 -3.62 9.75 C-3.24 8.29 -3.24 8.29 -2.85 6.8 C-2.1 4.34 -1.23 2.24 0 0 Z " fill="#F2F3F4" transform="translate(415,270)"/>
<path d="M0 0 C4.14 4.28 5.06 8.32 6 14 C6.66 14 7.32 14 8 14 C8 14.66 8 15.32 8 16 C8.99 15.99 9.97 15.98 10.99 15.96 C12.27 15.96 13.55 15.95 14.88 15.94 C16.15 15.93 17.43 15.91 18.74 15.9 C22 16 22 16 24 17 C23.68 20.03 23.07 20.93 20.75 23 C19.84 23.66 18.94 24.32 18 25 C16.61 26.11 16.61 26.11 15.19 27.25 C14.47 27.83 13.74 28.4 13 29 C13.2 29.96 13.2 29.96 13.4 30.94 C14.42 35.95 15.34 40.93 16 46 C12.51 45.38 10.43 43.99 7.62 41.88 C4.09 39.49 4.09 39.49 -0.06 38.75 C-3.59 40.25 -6.24 42.27 -9.17 44.72 C-11 46 -11 46 -14 46 C-15.4 42.23 -14.51 39.81 -13.31 36.06 C-11.97 31.5 -11.97 31.5 -13.31 27.12 C-16.83 24.34 -20.34 21.59 -24 19 C-23.5 17.51 -23.5 17.51 -23 16 C-15.08 15.5 -15.08 15.5 -7 15 C-6.4 13.45 -5.8 11.91 -5.19 10.31 C-3.73 6.65 -2.19 3.29 0 0 Z " fill="#F1F2F3" transform="translate(178,576)"/>
<path d="M0 0 C1.81 0.5 1.81 0.5 4 2 C5.86 5.6 7 8.94 7 13 C10.47 14.16 13.54 14.33 17.19 14.56 C19.1 14.69 19.1 14.69 21.04 14.82 C22.51 14.91 22.51 14.91 24 15 C24.5 17.48 24.5 17.48 25 20 C24.29 20.45 23.58 20.89 22.85 21.36 C21.93 21.96 21.01 22.56 20.06 23.19 C19.15 23.78 18.23 24.37 17.29 24.98 C14.87 26.8 14.87 26.8 14.09 29.34 C13.98 32.58 14.58 35.19 15.44 38.31 C15.72 39.38 16.01 40.45 16.31 41.55 C16.65 42.76 16.65 42.76 17 44 C12.57 44 11.97 43.51 8.62 40.94 C5.1 38.5 5.1 38.5 0.94 37.75 C-2.59 39.25 -5.24 41.27 -8.17 43.72 C-10 45 -10 45 -13 45 C-14.12 40.93 -13.79 38.43 -12.5 34.44 C-10.94 29.71 -10.94 29.71 -12 25 C-13.64 24.27 -15.31 23.61 -17 23 C-19.81 21.06 -19.81 21.06 -22 19 C-22 18.01 -22 17.02 -22 16 C-19.04 14.52 -16.16 14.65 -12.88 14.44 C-11.59 14.35 -10.31 14.27 -8.99 14.18 C-8 14.12 -7.02 14.06 -6 14 C-5.57 12.99 -5.13 11.98 -4.69 10.94 C-3.12 7.29 -1.56 3.65 0 0 Z " fill="#F2F3F4" transform="translate(534,347)"/>
<path d="M0 0 C1.86 0.65 1.86 0.65 4 2 C5.23 4.57 5.23 4.57 6.19 7.56 C7.11 11.06 7.11 11.06 9 14 C12 14.29 15.01 14.45 18.02 14.62 C20.84 14.98 22.59 15.56 25 17 C23.06 22.22 18.48 25.02 14 28 C14.75 33.72 15.83 39.35 17 45 C12 44.31 9.14 42.16 5.18 39.18 C3.13 37.83 3.13 37.83 1.08 38.1 C-1.73 39.32 -4.19 40.88 -6.75 42.56 C-7.73 43.2 -8.72 43.84 -9.73 44.5 C-10.48 45 -11.23 45.49 -12 46 C-12.66 45.34 -13.32 44.68 -14 44 C-13.79 42.05 -13.79 42.05 -13.19 39.75 C-12.99 38.95 -12.8 38.14 -12.6 37.31 C-12.12 35.45 -11.6 33.6 -11.06 31.75 C-10.71 28.82 -10.71 28.82 -13 26.44 C-16.25 23.8 -19.55 21.37 -23 19 C-22.5 17.51 -22.5 17.51 -22 16 C-18.93 14.47 -15.73 14.9 -12.38 14.94 C-11.32 14.94 -11.32 14.94 -10.23 14.95 C-8.49 14.96 -6.74 14.98 -5 15 C-4.81 14.25 -4.61 13.5 -4.41 12.73 C-4.15 11.75 -3.89 10.76 -3.62 9.75 C-3.24 8.29 -3.24 8.29 -2.85 6.8 C-2.1 4.34 -1.23 2.24 0 0 Z " fill="#F2F2F3" transform="translate(177,270)"/>
<path d="M0 0 C3.71 3.84 4.66 6.99 5.41 12.11 C5.6 12.73 5.8 13.36 6 14 C10.29 15.43 14.57 15.44 19.07 15.72 C22 16 22 16 24 17 C23.69 20.07 23.12 20.9 20.68 22.89 C19.75 23.53 18.83 24.16 17.88 24.81 C15.15 26.82 15.15 26.82 13 29 C12.5 32.66 12.5 32.66 14 36 C15.24 39.73 16 42.01 16 46 C11.64 45.22 8.82 42.86 5.32 40.28 C2.54 38.75 1.13 38.49 -2 39 C-4.44 40.71 -6.52 42.65 -8.72 44.66 C-9.47 45.1 -10.22 45.55 -11 46 C-13.78 45.21 -13.78 45.21 -16 44 C-15.69 43.19 -15.38 42.38 -15.05 41.55 C-14.67 40.48 -14.28 39.41 -13.88 38.31 C-13.48 37.26 -13.09 36.2 -12.68 35.11 C-11.88 31.45 -12.07 30.18 -14 27 C-16.37 24.7 -16.37 24.7 -19.12 22.69 C-20.04 21.99 -20.95 21.29 -21.88 20.57 C-22.58 20.05 -23.28 19.54 -24 19 C-23.5 17.51 -23.5 17.51 -23 16 C-15.08 15.5 -15.08 15.5 -7 15 C-6.4 13.45 -5.8 11.91 -5.19 10.31 C-3.73 6.65 -2.19 3.29 0 0 Z " fill="#F1F2F3" transform="translate(416,576)"/>
<path d="M0 0 C3.77 2.51 4.16 4.42 5.69 8.62 C6.12 9.81 6.56 11 7.01 12.23 C7.34 13.14 7.66 14.06 8 15 C9.46 15.06 9.46 15.06 10.96 15.11 C12.23 15.18 13.5 15.24 14.81 15.31 C16.08 15.37 17.34 15.43 18.64 15.49 C22 16 22 16 23.95 17.54 C24.3 18.02 24.64 18.5 25 19 C22.38 21.78 19.99 24.01 16.75 26.06 C13.94 27.67 13.94 27.67 13.24 29.85 C12.95 32.46 13.48 33.94 14.44 36.38 C15.78 40.06 16.31 43.03 16 47 C11.78 45.04 8.29 42.82 4.71 39.89 C3.04 38.83 3.04 38.83 1.1 39.16 C-2.41 40.56 -5.42 42.74 -8.56 44.82 C-11 46 -11 46 -13.31 45.68 C-14.15 45.34 -14.15 45.34 -15 45 C-14.78 44.26 -14.57 43.53 -14.34 42.77 C-14.07 41.79 -13.79 40.82 -13.5 39.81 C-13.22 38.85 -12.94 37.89 -12.66 36.89 C-11.73 32.82 -11.68 29.97 -13 26 C-14.77 24.99 -14.77 24.99 -17 24 C-20.25 22.06 -20.25 22.06 -23 20 C-23 19.01 -23 18.02 -23 17 C-19.53 15.84 -16.46 15.67 -12.81 15.44 C-11.54 15.35 -10.27 15.27 -8.96 15.18 C-7.98 15.12 -7.01 15.06 -6 15 C-5.65 14.08 -5.3 13.17 -4.94 12.23 C-4.49 11.04 -4.03 9.85 -3.56 8.62 C-3.11 7.44 -2.66 6.26 -2.19 5.04 C-1 2 -1 2 0 0 Z " fill="#F2F3F4" transform="translate(475,460)"/>
<path d="M0 0 C1.86 0.65 1.86 0.65 4 2 C5.23 4.57 5.23 4.57 6.19 7.56 C7.11 11.06 7.11 11.06 9 14 C11.53 14.24 14.03 14.42 16.56 14.56 C17.27 14.61 17.98 14.65 18.72 14.69 C20.48 14.8 22.24 14.9 24 15 C24.5 16.98 24.5 16.98 25 19 C23.95 19.97 22.88 20.92 21.81 21.88 C21.22 22.41 20.63 22.94 20.02 23.49 C18 25 18 25 13 27 C14.32 32.61 15.64 38.22 17 44 C16.01 44.33 15.02 44.66 14 45 C11.13 43.29 8.49 41.34 5.79 39.37 C3.1 37.68 3.1 37.68 0.4 38.62 C-2.52 40.3 -5.28 42.13 -8.04 44.07 C-10 45 -10 45 -12.25 44.64 C-12.82 44.43 -13.4 44.22 -14 44 C-13.87 43.42 -13.73 42.84 -13.6 42.24 C-13.23 40.62 -12.88 39 -12.53 37.38 C-12.11 35.49 -11.6 33.61 -11.06 31.75 C-10.7 28.81 -10.7 28.81 -13.06 26.44 C-14.59 25.17 -16.12 23.91 -17.67 22.68 C-19.15 21.5 -20.58 20.25 -22 19 C-22 18.01 -22 17.02 -22 16 C-18.93 14.47 -15.73 14.9 -12.38 14.94 C-11.32 14.94 -11.32 14.94 -10.23 14.95 C-8.49 14.96 -6.74 14.98 -5 15 C-4.81 14.25 -4.61 13.5 -4.41 12.73 C-4.15 11.75 -3.89 10.76 -3.62 9.75 C-3.24 8.29 -3.24 8.29 -2.85 6.8 C-2.1 4.34 -1.23 2.24 0 0 Z " fill="#F2F2F3" transform="translate(534,500)"/>
<path d="M0 0 C1.81 0.5 1.81 0.5 4 2 C5.86 5.6 7 8.94 7 13 C11.29 14.43 15.57 14.44 20.07 14.72 C23 15 23 15 25 16 C24.68 19.03 24.07 19.93 21.75 22 C19.92 23.33 18.04 24.6 16.12 25.81 C15.07 26.9 15.07 26.9 14 28 C13.95 31.33 13.95 31.33 15 35 C15.36 36.65 15.71 38.29 16.06 39.94 C16.37 41.29 16.68 42.65 17 44 C12.57 44 11.97 43.51 8.62 40.94 C5.13 38.51 5.13 38.51 1 37.75 C-2.71 39.3 -5.8 41.37 -9.05 43.72 C-11 45 -11 45 -13 45 C-14.16 40.87 -13.73 38.5 -12.31 34.5 C-10.96 30.27 -10.96 30.27 -12.31 26.19 C-15.26 23.79 -18.26 21.5 -21.39 19.33 C-21.92 18.89 -22.45 18.45 -23 18 C-23 17.34 -23 16.68 -23 16 C-19.96 14.48 -16.72 14.63 -13.38 14.44 C-12.32 14.37 -12.32 14.37 -11.23 14.31 C-9.49 14.2 -7.74 14.1 -6 14 C-5.57 12.99 -5.13 11.98 -4.69 10.94 C-2.34 5.47 -2.34 5.47 0 0 Z " fill="#F1F2F3" transform="translate(534,577)"/>
<path d="M0 0 C0.66 0 1.32 0 2 0 C2.63 1.4 3.25 2.79 3.88 4.19 C4.22 4.96 4.57 5.74 4.93 6.54 C6 9.01 7.01 11.5 8 14 C9.06 14.11 10.12 14.22 11.21 14.33 C12.6 14.49 13.99 14.65 15.38 14.81 C16.07 14.88 16.77 14.95 17.49 15.03 C19.34 15.25 21.18 15.62 23 16 C23.66 16.99 24.32 17.98 25 19 C23.75 20.11 22.5 21.21 21.25 22.31 C20.55 22.93 19.86 23.54 19.14 24.18 C17.15 25.87 15.11 27.45 13 29 C13.6 31.5 14.29 33.92 15.06 36.38 C15.94 39.78 16.17 42.51 16 46 C12.68 44.89 10.31 43.49 7.62 41.31 C4.89 39.33 4.1 39.01 0.56 38.81 C-4.06 40.35 -7.32 42.87 -11 46 C-12.32 45.34 -13.64 44.68 -15 44 C-14.65 43.06 -14.31 42.12 -13.95 41.15 C-12.69 37.38 -11.66 33.92 -11 30 C-12.7 26.66 -13.15 25.95 -16 24 C-16.94 23.28 -16.94 23.28 -17.91 22.54 C-19.57 21.31 -21.28 20.15 -23 19 C-22.5 17.51 -22.5 17.51 -22 16 C-13.58 15.5 -13.58 15.5 -5 15 C-4.73 13.64 -4.46 12.28 -4.19 10.88 C-3.31 6.9 -2.01 3.57 0 0 Z " fill="#F1F2F3" transform="translate(118,384)"/>
<path d="M0 0 C2.4 2.15 3.6 3.97 4.69 7 C4.94 7.68 5.19 8.36 5.45 9.06 C6 11 6 11 6 14 C10.52 15.51 15.11 15.34 19.85 15.52 C20.89 15.68 21.93 15.84 23 16 C23.66 16.99 24.32 17.98 25 19 C24.12 19.64 23.24 20.28 22.34 20.94 C21.2 21.81 20.07 22.69 18.94 23.56 C18.36 23.98 17.78 24.4 17.18 24.83 C15.26 26.26 15.26 26.26 13 29 C12.92 32.56 12.92 32.56 14 36 C14.18 36.88 14.35 37.75 14.54 38.65 C14.71 39.41 14.88 40.16 15.06 40.94 C15.24 41.71 15.42 42.48 15.6 43.28 C15.73 43.85 15.86 44.41 16 45 C11.57 45 10.97 44.51 7.62 41.94 C4.1 39.5 4.1 39.5 -0.06 38.75 C-3.59 40.25 -6.24 42.27 -9.17 44.72 C-11 46 -11 46 -14 46 C-15.7 41.34 -13.92 37.46 -12.59 32.88 C-12.01 30.06 -11.86 28.61 -13 26 C-14.64 25.27 -16.31 24.61 -18 24 C-20.81 22.06 -20.81 22.06 -23 20 C-23 19.01 -23 18.02 -23 17 C-19.93 15.47 -16.73 15.9 -13.38 15.94 C-12.32 15.94 -12.32 15.94 -11.23 15.95 C-9.49 15.96 -7.74 15.98 -6 16 C-5.82 15.26 -5.64 14.53 -5.45 13.77 C-2.95 4.08 -2.95 4.08 0 0 Z " fill="#F1F2F3" transform="translate(297,576)"/>
<path d="M0 0 C1.86 0.65 1.86 0.65 4 2 C5.23 4.57 5.23 4.57 6.19 7.56 C7.11 11.06 7.11 11.06 9 14 C12.59 14.2 16.18 14.32 19.78 14.43 C23 15 23 15 24.44 17.04 C24.63 17.69 24.81 18.33 25 19 C24.19 19.57 23.39 20.14 22.56 20.72 C21.53 21.49 20.5 22.27 19.44 23.06 C18.4 23.82 17.37 24.57 16.31 25.35 C13.6 27.85 13.6 27.85 14.09 31.47 C14.39 32.63 14.69 33.8 15 35 C15.18 35.95 15.35 36.89 15.54 37.87 C15.71 38.72 15.88 39.56 16.06 40.44 C16.24 41.3 16.42 42.17 16.6 43.06 C16.8 44.02 16.8 44.02 17 45 C12.08 44.33 9.71 42.37 6.06 39.18 C4.04 37.78 4.04 37.78 1.54 38.12 C-2.1 39.38 -4.77 41.53 -7.82 43.82 C-10 45 -10 45 -12.28 44.68 C-12.85 44.46 -13.41 44.23 -14 44 C-13.87 43.42 -13.73 42.84 -13.6 42.24 C-13.23 40.62 -12.88 39 -12.53 37.38 C-12.11 35.49 -11.6 33.61 -11.06 31.75 C-10.71 28.82 -10.71 28.82 -13 26.44 C-16.25 23.8 -19.55 21.37 -23 19 C-22.5 17.51 -22.5 17.51 -22 16 C-18.93 14.47 -15.73 14.9 -12.38 14.94 C-11.32 14.94 -11.32 14.94 -10.23 14.95 C-8.49 14.96 -6.74 14.98 -5 15 C-4.81 14.25 -4.61 13.5 -4.41 12.73 C-4.15 11.75 -3.89 10.76 -3.62 9.75 C-3.24 8.29 -3.24 8.29 -2.85 6.8 C-2.1 4.34 -1.23 2.24 0 0 Z " fill="#F1F2F3" transform="translate(177,500)"/>
<path d="M0 0 C0.66 0 1.32 0 2 0 C2.27 0.68 2.53 1.35 2.8 2.05 C3.16 2.94 3.51 3.83 3.88 4.75 C4.22 5.63 4.57 6.51 4.93 7.42 C5.28 8.27 5.64 9.12 6 10 C6.22 10.75 6.44 11.49 6.66 12.26 C8 14.38 8 14.38 11.41 14.72 C12.77 14.85 14.13 14.97 15.5 15.06 C18.06 15.26 20.46 15.56 23 16 C23.66 16.99 24.32 17.98 25 19 C21.67 22.59 18.01 25.22 14 28 C14.51 33.85 15.45 39.33 17 45 C11.64 45 9.62 42.67 5.54 39.43 C3.1 37.75 3.1 37.75 0.34 38.17 C-2.66 39.23 -4.56 40.98 -7 43 C-8.98 44.04 -10.97 45.06 -13 46 C-13.66 45.01 -14.32 44.02 -15 43 C-14.44 40.45 -13.54 38.12 -12.63 35.67 C-11.84 32.32 -11.98 30.29 -13 27 C-15.25 24.58 -15.25 24.58 -18.06 22.62 C-18.98 21.94 -19.9 21.25 -20.85 20.54 C-21.56 20.03 -22.27 19.52 -23 19 C-22.5 17.51 -22.5 17.51 -22 16 C-13.59 15.5 -13.59 15.5 -5 15 C-4.73 13.64 -4.46 12.28 -4.19 10.88 C-3.31 6.9 -2.01 3.57 0 0 Z " fill="#F2F3F4" transform="translate(237,384)"/>
<path d="M0 0 C1.86 0.65 1.86 0.65 4 2 C5.23 4.57 5.23 4.57 6.19 7.56 C7.11 11.06 7.11 11.06 9 14 C12.59 14.2 16.18 14.32 19.78 14.43 C23 15 23 15 24.44 17.04 C24.63 17.69 24.81 18.33 25 19 C24.19 19.57 23.39 20.14 22.56 20.72 C21.53 21.49 20.5 22.27 19.44 23.06 C18.4 23.82 17.37 24.57 16.31 25.35 C13.59 27.87 13.59 27.87 14.09 31.61 C14.68 33.82 15.34 36.02 16.06 38.19 C17 41 17 41 17 45 C12.5 44.19 9.27 41.69 5.54 39.18 C2.43 37.73 1.2 37.86 -2 39 C-4.16 40.38 -4.16 40.38 -6.12 42.06 C-9.68 45 -9.68 45 -13 45 C-13 44.34 -13 43.68 -13 43 C-13.66 42.67 -14.32 42.34 -15 42 C-14.53 40.97 -14.05 39.94 -13.56 38.88 C-12.17 35.53 -11 32.68 -11 29 C-14.2 24.1 -18.17 21.22 -23 18 C-22.5 16.51 -22.5 16.51 -22 15 C-14.08 14.5 -14.08 14.5 -6 14 C-5.2 12.06 -4.39 10.12 -3.56 8.12 C-1.12 2.25 -1.12 2.25 0 0 Z " fill="#F2F3F4" transform="translate(415,347)"/>
<path d="M0 0 C1.81 0.5 1.81 0.5 4 2 C5.86 5.6 7 8.94 7 13 C7.66 13 8.32 13 9 13 C9 13.66 9 14.32 9 15 C13.62 15 18.24 15 23 15 C23.66 16.32 24.32 17.64 25 19 C24.19 19.57 23.39 20.14 22.56 20.72 C21.53 21.49 20.5 22.27 19.44 23.06 C18.4 23.82 17.37 24.57 16.31 25.35 C13.59 27.87 13.59 27.87 14.09 31.61 C14.68 33.82 15.34 36.02 16.06 38.19 C17 41 17 41 17 45 C13.51 44.38 11.43 42.99 8.62 40.88 C5.09 38.49 5.09 38.49 0.94 37.75 C-2.59 39.25 -5.24 41.27 -8.17 43.72 C-10 45 -10 45 -13 45 C-14.41 41.23 -13.49 38.86 -12.25 35.12 C-11.05 31.06 -11.05 31.06 -11.7 27.02 C-13.85 24.38 -16.47 22.7 -19.31 20.88 C-20.2 20.26 -21.09 19.64 -22 19 C-22 17.68 -22 16.36 -22 15 C-14.08 14.5 -14.08 14.5 -6 14 C-5.38 12.43 -4.76 10.87 -4.12 9.25 C-2.88 6.09 -1.57 3.02 0 0 Z " fill="#F2F2F3" transform="translate(177,347)"/>
<path d="M0 0 C3.62 2.42 4.07 4.06 5.62 8.06 C6.86 11.8 6.86 11.8 9 15 C12.59 15.2 16.18 15.32 19.78 15.43 C23 16 23 16 24.44 18.04 C24.63 18.69 24.81 19.33 25 20 C23.38 21.34 21.75 22.67 20.12 24 C19.22 24.74 18.32 25.49 17.38 26.25 C15 28 15 28 13 28 C13.2 28.94 13.2 28.94 13.4 29.91 C14.51 35.26 15.4 40.56 16 46 C11.39 44.76 8.38 42.97 4.81 39.93 C2.98 38.79 2.98 38.79 0.59 39.16 C-2.28 40.09 -4.35 41.33 -6.81 43.06 C-7.6 43.61 -8.39 44.16 -9.21 44.72 C-10.09 45.35 -10.09 45.35 -11 46 C-12.32 45.34 -13.64 44.68 -15 44 C-14.77 43.36 -14.54 42.72 -14.31 42.06 C-11.76 34.59 -11.76 34.59 -13 27 C-15.21 24.97 -17.48 23.26 -19.97 21.58 C-22 20 -22 20 -23 17 C-19.96 15.48 -16.72 15.63 -13.38 15.44 C-12.32 15.37 -12.32 15.37 -11.23 15.31 C-9.49 15.2 -7.74 15.1 -6 15 C-5.65 14 -5.3 13 -4.94 11.97 C-4.48 10.67 -4.02 9.37 -3.56 8.06 C-3.33 7.4 -3.1 6.74 -2.87 6.06 C-1.11 1.11 -1.11 1.11 0 0 Z " fill="#F2F3F4" transform="translate(475,307)"/>
<path d="M0 0 C1.83 0.12 1.83 0.12 4 1 C5.45 3.69 5.45 3.69 6.69 7 C7.88 10.78 7.88 10.78 10 14 C13.59 14.2 17.18 14.32 20.78 14.43 C24 15 24 15 25.44 17.04 C25.63 17.69 25.81 18.33 26 19 C24.57 20.15 23.13 21.3 21.69 22.44 C20.89 23.08 20.09 23.71 19.26 24.37 C17 26 17 26 14 27 C14.45 30.15 15 32.99 16.06 36 C17.05 39.16 17.16 41.71 17 45 C12.97 43.66 10.1 41.68 6.84 39.02 C4.32 37.62 2.85 37.6 0 38 C-2.67 39.5 -2.67 39.5 -5.19 41.5 C-9.82 45 -9.82 45 -12 45 C-12 44.34 -12 43.68 -12 43 C-12.66 42.67 -13.32 42.34 -14 42 C-13.78 41.41 -13.57 40.82 -13.34 40.21 C-11 34.23 -11 34.23 -11 28 C-14.23 24.2 -18.14 21.14 -22 18 C-21.5 16.51 -21.5 16.51 -21 15 C-15.72 15 -10.44 15 -5 15 C-4.55 13.64 -4.09 12.28 -3.62 10.88 C-1.81 5.44 -1.81 5.44 0 0 Z " fill="#F2F2F3" transform="translate(355,308)"/>
<path d="M0 0 C4.11 3.23 5.42 7.1 7.17 11.86 C7.81 13.95 7.81 13.95 9 15 C12.59 15.2 16.18 15.32 19.78 15.43 C20.84 15.62 21.9 15.8 23 16 C23.66 17.32 24.32 18.64 25 20 C19.56 23.96 19.56 23.96 14 28 C14.55 33.88 15.45 39.31 17 45 C16.01 45.33 15.02 45.66 14 46 C11.37 44.36 9.01 42.47 6.57 40.57 C3.64 38.78 2.36 38.39 -1 39 C-3.48 40.67 -5.58 42.58 -7.82 44.57 C-10 46 -10 46 -12.28 45.71 C-12.85 45.48 -13.41 45.24 -14 45 C-13.86 43.85 -13.71 42.69 -13.56 41.5 C-13.48 40.77 -13.39 40.04 -13.31 39.29 C-13 37 -13 37 -12.54 34.86 C-12.01 32.54 -12.01 32.54 -12 29 C-14 26.17 -14 26.17 -17 24 C-18.11 23.06 -19.21 22.13 -20.31 21.19 C-21.2 20.47 -22.09 19.74 -23 19 C-22.5 17.51 -22.5 17.51 -22 16 C-14.08 15.5 -14.08 15.5 -6 15 C-4.4 10.44 -4.4 10.44 -2.8 5.88 C-1.11 1.11 -1.11 1.11 0 0 Z " fill="#F2F3F4" transform="translate(237,307)"/>
<path d="M0 0 C3.62 2.25 4.62 3.96 5.62 8.06 C6.54 11.95 6.54 11.95 9 15 C12.61 15.31 16.19 15.38 19.81 15.46 C21.39 15.73 21.39 15.73 23 16 C23.66 17.32 24.32 18.64 25 20 C19.56 23.96 19.56 23.96 14 28 C14.55 33.88 15.45 39.31 17 45 C16.01 45.33 15.02 45.66 14 46 C11.37 44.36 9.01 42.47 6.57 40.57 C3.63 38.77 2.37 38.4 -1 39 C-3.64 40.54 -3.64 40.54 -6.12 42.56 C-8.7 44.57 -8.7 44.57 -11 46 C-11.99 45.67 -12.98 45.34 -14 45 C-13.86 43.85 -13.71 42.69 -13.56 41.5 C-13.48 40.77 -13.39 40.04 -13.31 39.29 C-13 37 -13 37 -12.54 34.86 C-12.01 32.54 -12.01 32.54 -12 29 C-14 26.17 -14 26.17 -17 24 C-18.11 23.06 -19.21 22.13 -20.31 21.19 C-21.2 20.47 -22.09 19.74 -23 19 C-22.5 17.51 -22.5 17.51 -22 16 C-14.08 15.5 -14.08 15.5 -6 15 C-4.4 10.44 -4.4 10.44 -2.8 5.88 C-1.11 1.11 -1.11 1.11 0 0 Z " fill="#F2F2F3" transform="translate(237,537)"/>
<path d="M0 0 C0.99 0 1.98 0 3 0 C3.65 1.39 4.3 2.79 4.94 4.19 C5.3 4.96 5.66 5.74 6.03 6.54 C7.01 9.02 7.56 11.37 8 14 C8.88 14.05 9.76 14.1 10.67 14.15 C12.41 14.26 12.41 14.26 14.19 14.38 C15.34 14.44 16.48 14.51 17.67 14.59 C20.8 14.98 23.15 15.68 26 17 C24.5 20.89 22.3 22.47 18.88 24.75 C17.96 25.36 17.05 25.98 16.12 26.61 C15.42 27.07 14.72 27.53 14 28 C14.13 28.56 14.27 29.11 14.4 29.69 C15.58 34.79 16.43 39.8 17 45 C12.15 44.7 9.5 42.22 5.96 39.18 C4.1 37.81 4.1 37.81 2.07 38.12 C-1.43 39.6 -4.49 41.75 -7.66 43.82 C-8.82 44.4 -8.82 44.4 -10 45 C-10.99 44.67 -11.98 44.34 -13 44 C-12.86 42.85 -12.71 41.69 -12.56 40.5 C-12.47 39.77 -12.38 39.05 -12.29 38.3 C-12.1 36.8 -11.9 35.29 -11.68 33.79 C-11.2 30.44 -10.91 28.26 -12 25 C-13.66 24.31 -15.33 23.65 -17 23 C-19.81 21.06 -19.81 21.06 -22 19 C-22 18.01 -22 17.02 -22 16 C-13.58 15.01 -13.58 15.01 -5 14 C-3.35 9.38 -1.7 4.76 0 0 Z " fill="#F1F2F3" transform="translate(355,461)"/>
<path d="M0 0 C3.46 3 4.69 5.31 5.75 9.75 C5.99 10.73 6.23 11.72 6.48 12.73 C6.65 13.48 6.82 14.23 7 15 C7.88 15.05 8.76 15.1 9.67 15.15 C11.41 15.26 11.41 15.26 13.19 15.38 C14.34 15.44 15.48 15.51 16.67 15.59 C19.8 15.98 22.15 16.68 25 18 C23.2 22.59 20.12 23.97 16 26.34 C13.81 27.87 13.81 27.87 13.13 30.44 C12.99 33.15 13.33 34.55 14.44 37 C15.75 40.15 16.32 42.54 16 46 C11.15 45.7 8.5 43.22 4.96 40.18 C3.1 38.81 3.1 38.81 1.07 39.12 C-2.41 40.6 -5.43 42.74 -8.56 44.82 C-11 46 -11 46 -13.31 45.68 C-14.15 45.34 -14.15 45.34 -15 45 C-14.68 44.02 -14.68 44.02 -14.34 43.02 C-12.44 37.04 -10.95 32.15 -13 26 C-14.66 25.31 -16.33 24.65 -18 24 C-20.81 22.06 -20.81 22.06 -23 20 C-23 19.01 -23 18.02 -23 17 C-19 16.04 -15.29 15.9 -11.19 15.94 C-10.03 15.95 -8.86 15.96 -7.67 15.96 C-6.79 15.98 -5.91 15.99 -5 16 C-4.84 15.15 -4.84 15.15 -4.67 14.28 C-3.62 9.18 -2.21 4.72 0 0 Z " fill="#F2F2F3" transform="translate(118,460)"/>
<path d="M0 0 C4.64 3.64 6.07 8.63 8 14 C9.06 14.1 10.12 14.2 11.21 14.3 C12.6 14.45 13.99 14.6 15.38 14.75 C16.07 14.81 16.77 14.87 17.49 14.94 C19.52 15.17 19.52 15.17 23 16 C23.66 17.32 24.32 18.64 25 20 C19.06 24.45 19.06 24.45 13 29 C13.81 33.71 13.81 33.71 15.06 36.94 C16.04 40.13 16.16 42.69 16 46 C12.35 44.86 9.95 43.18 7.06 40.75 C3.94 38.28 3.94 38.28 0 38.25 C-3.92 40.54 -7.47 43.15 -11 46 C-12.32 45.34 -13.64 44.68 -15 44 C-14.77 43.28 -14.54 42.55 -14.31 41.8 C-14.02 40.84 -13.73 39.87 -13.44 38.88 C-13.15 37.92 -12.86 36.97 -12.56 35.99 C-11.91 32.53 -11.95 30.37 -13 27 C-15.26 24.68 -15.26 24.68 -18.06 22.81 C-20.85 20.83 -20.85 20.83 -23 19 C-23 18.01 -23 17.02 -23 16 C-17.06 15.67 -11.12 15.34 -5 15 C-4.73 13.64 -4.46 12.28 -4.19 10.88 C-3.31 6.9 -2.01 3.57 0 0 Z " fill="#F2F3F4" transform="translate(475,384)"/>
<path d="M0 0 C1.89 0.65 1.89 0.65 4 2 C5.05 4.6 5.05 4.6 5.75 7.62 C5.99 8.63 6.23 9.63 6.48 10.66 C6.65 11.43 6.82 12.21 7 13 C7.66 13 8.32 13 9 13 C9 13.66 9 14.32 9 15 C13.95 15 18.9 15 24 15 C24.5 16.98 24.5 16.98 25 19 C17.7 25.33 17.7 25.33 14 28 C14.69 33.42 15.76 38.68 17 44 C12.57 44 11.97 43.51 8.62 40.94 C5.1 38.5 5.1 38.5 0.94 37.75 C-2.59 39.25 -5.24 41.27 -8.17 43.72 C-10 45 -10 45 -13 45 C-14.7 40.34 -12.92 36.46 -11.59 31.88 C-11.01 29.06 -10.86 27.61 -12 25 C-13.64 24.27 -15.31 23.61 -17 23 C-19.81 21.06 -19.81 21.06 -22 19 C-22 18.01 -22 17.02 -22 16 C-19.04 14.52 -16.16 14.65 -12.88 14.44 C-11.59 14.35 -10.31 14.27 -8.99 14.18 C-8 14.12 -7.02 14.06 -6 14 C-5.73 13.32 -5.47 12.65 -5.2 11.95 C-4.84 11.06 -4.49 10.17 -4.12 9.25 C-3.78 8.37 -3.43 7.49 -3.07 6.58 C-2.14 4.33 -1.12 2.16 0 0 Z " fill="#F1F2F3" transform="translate(296,347)"/>
<path d="M0 0 C1.32 0.33 2.64 0.66 4 1 C5.45 3.69 5.45 3.69 6.69 7 C7.88 10.78 7.88 10.78 10 14 C13.59 14.25 17.18 14.38 20.78 14.52 C21.84 14.68 22.9 14.84 24 15 C24.66 15.99 25.32 16.98 26 18 C22.57 21.64 19.2 24.36 15 27 C15.58 33.01 16.22 39.01 17 45 C12.97 43.66 10.1 41.68 6.84 39.02 C4.32 37.62 2.85 37.6 0 38 C-2.74 39.5 -2.74 39.5 -5.31 41.5 C-6.64 42.47 -6.64 42.47 -7.99 43.47 C-8.65 43.97 -9.32 44.48 -10 45 C-11.32 44.34 -12.64 43.68 -14 43 C-13.78 42.34 -13.57 41.67 -13.34 40.99 C-13.07 40.11 -12.79 39.22 -12.5 38.31 C-12.22 37.44 -11.94 36.57 -11.66 35.68 C-10.99 32.95 -10.73 30.79 -11 28 C-13.5 25.06 -16.33 22.73 -19.31 20.31 C-20.2 19.55 -21.09 18.79 -22 18 C-22 17.34 -22 16.68 -22 16 C-18.96 14.48 -15.72 14.63 -12.38 14.44 C-8.72 14.22 -8.72 14.22 -5 14 C-3.35 9.38 -1.7 4.76 0 0 Z " fill="#F2F2F3" transform="translate(117,308)"/>
<path d="M0 0 C1.81 0.5 1.81 0.5 4 2 C5.86 5.6 7 8.94 7 13 C10.47 14.16 13.54 14.33 17.19 14.56 C19.1 14.69 19.1 14.69 21.04 14.82 C22.51 14.91 22.51 14.91 24 15 C24.5 16.98 24.5 16.98 25 19 C24.55 19.38 24.11 19.75 23.64 20.14 C19.93 23.28 16.39 26.5 13 30 C13.47 31.18 13.95 32.35 14.44 33.56 C15.89 37.4 16.58 40.93 17 45 C12.64 44.22 9.82 41.86 6.32 39.28 C3.54 37.75 2.13 37.5 -1 38 C-3.42 39.5 -3.42 39.5 -5.62 41.5 C-9.69 45 -9.69 45 -13 45 C-14.52 40.45 -12.75 36.76 -11.5 32.23 C-10.95 28.67 -11.22 27.09 -13 24 C-15.38 22.82 -15.38 22.82 -18 22 C-20.31 20.56 -20.31 20.56 -22 19 C-22 18.01 -22 17.02 -22 16 C-19.04 14.52 -16.16 14.65 -12.88 14.44 C-11.59 14.35 -10.31 14.27 -8.99 14.18 C-8 14.12 -7.02 14.06 -6 14 C-5.65 13.16 -5.3 12.31 -4.94 11.45 C-4.49 10.35 -4.03 9.25 -3.56 8.12 C-3.11 7.03 -2.66 5.94 -2.19 4.82 C-1.5 3.19 -0.79 1.58 0 0 Z " fill="#F1F2F3" transform="translate(58,577)"/>
<path d="M0 0 C1.32 0.33 2.64 0.66 4 1 C5.45 3.69 5.45 3.69 6.69 7 C7.88 10.78 7.88 10.78 10 14 C12.35 14.24 14.71 14.41 17.06 14.56 C18.35 14.65 19.64 14.73 20.97 14.82 C21.97 14.88 22.97 14.94 24 15 C24 15.66 24 16.32 24 17 C24.66 17.33 25.32 17.66 26 18 C23.38 20.77 20.95 23.03 17.75 25.12 C14.74 26.77 14.74 26.77 14 30 C14.54 32.37 14.54 32.37 15.44 34.88 C16.64 38.41 17.17 41.26 17 45 C12.97 43.66 10.1 41.68 6.84 39.02 C4.33 37.63 2.84 37.59 0 38 C-2.48 39.67 -4.58 41.58 -6.82 43.57 C-9 45 -9 45 -11.21 44.84 C-13 44 -13 44 -14 42 C-13.41 40.08 -13.41 40.08 -12.5 37.81 C-11 33.36 -10.26 30.55 -12 26 C-14.49 23.68 -17.08 21.68 -19.85 19.7 C-20.91 18.86 -20.91 18.86 -22 18 C-22 17.34 -22 16.68 -22 16 C-18.96 14.48 -15.72 14.63 -12.38 14.44 C-8.72 14.22 -8.72 14.22 -5 14 C-3.35 9.38 -1.7 4.76 0 0 Z " fill="#F2F2F3" transform="translate(117,538)"/>
<path d="M0 0 C0.66 0 1.32 0 2 0 C2.28 0.92 2.56 1.83 2.85 2.77 C4.95 10.01 4.95 10.01 10.25 14.75 C11.49 14.83 12.73 14.92 14 15 C15.61 15.13 17.21 15.28 18.81 15.44 C19.56 15.48 20.31 15.52 21.08 15.56 C23 16 23 16 25 19 C21.04 22.3 17.08 25.6 13 29 C13.87 33.78 13.87 33.78 15.06 37.5 C15.88 40.56 16.19 42.87 16 46 C12.71 44.9 10.27 43.5 7.56 41.38 C5.27 39.73 3.91 38.98 1.12 38.25 C-3.15 39.28 -5.74 41.64 -9.05 44.47 C-11 46 -11 46 -13 46 C-14.22 40.98 -13.42 37.89 -12 33 C-12.09 29.34 -12.81 28.22 -15.25 25.44 C-17.77 23.2 -20.33 21.06 -23 19 C-22.5 17.51 -22.5 17.51 -22 16 C-13.58 15.5 -13.58 15.5 -5 15 C-4.73 13.64 -4.46 12.28 -4.19 10.88 C-3.31 6.9 -2.01 3.57 0 0 Z " fill="#F1F2F3" transform="translate(356,384)"/>
<path d="M0 0 C2.38 2.92 3.8 5.67 5.12 9.19 C6.16 12.35 6.16 12.35 8 15 C10.35 15.24 12.71 15.41 15.06 15.56 C16.35 15.65 17.64 15.73 18.97 15.82 C19.97 15.88 20.97 15.94 22 16 C22 16.66 22 17.32 22 18 C22.66 18.33 23.32 18.66 24 19 C22.38 20.51 20.75 22 19.12 23.5 C18.22 24.34 17.32 25.17 16.38 26.03 C14 28 14 28 12 28 C12.45 31.15 13 33.99 14.06 37 C15.05 40.16 15.16 42.71 15 46 C10.97 44.66 8.1 42.68 4.84 40.02 C2.32 38.62 0.85 38.6 -2 39 C-4.67 40.5 -4.67 40.5 -7.19 42.5 C-11.82 46 -11.82 46 -14 46 C-14 45.34 -14 44.68 -14 44 C-14.66 43.67 -15.32 43.34 -16 43 C-15.78 42.41 -15.57 41.82 -15.34 41.21 C-13 35.23 -13 35.23 -13 29 C-15.5 26.06 -18.33 23.73 -21.31 21.31 C-22.2 20.55 -23.09 19.79 -24 19 C-24 18.34 -24 17.68 -24 17 C-20.93 15.47 -17.73 15.9 -14.38 15.94 C-13.32 15.94 -13.32 15.94 -12.23 15.95 C-10.49 15.96 -8.74 15.98 -7 16 C-6.81 15.42 -6.61 14.84 -6.41 14.24 C-5.88 12.63 -5.34 11.01 -4.79 9.4 C-4.15 7.44 -3.54 5.47 -2.94 3.5 C-2 1 -2 1 0 0 Z " fill="#F2F2F3" transform="translate(357,537)"/>
<path d="M0 0 C3.62 2.42 4.07 4.06 5.62 8.06 C6.86 11.8 6.86 11.8 9 15 C12.59 15.2 16.18 15.32 19.78 15.43 C23 16 23 16 24.44 18.04 C24.63 18.69 24.81 19.33 25 20 C24.22 20.54 23.44 21.09 22.63 21.64 C21.62 22.36 20.61 23.08 19.56 23.81 C18.55 24.52 17.54 25.23 16.5 25.96 C13.76 27.82 13.76 27.82 13 31 C13.54 33.37 13.54 33.37 14.44 35.88 C15.64 39.41 16.17 42.26 16 46 C11.73 45.25 9.34 43.02 6.1 40.28 C3.42 38.65 2.09 38.52 -1 39 C-3.74 40.5 -3.74 40.5 -6.31 42.5 C-7.64 43.47 -7.64 43.47 -8.99 44.47 C-9.65 44.97 -10.32 45.48 -11 46 C-12.32 45.34 -13.64 44.68 -15 44 C-14.77 43.36 -14.54 42.72 -14.31 42.06 C-11.73 34.58 -11.73 34.58 -13 27 C-16.12 24.01 -19.46 21.47 -23 19 C-22.5 17.51 -22.5 17.51 -22 16 C-14.08 15.5 -14.08 15.5 -6 15 C-4.4 10.44 -4.4 10.44 -2.8 5.88 C-1.11 1.11 -1.11 1.11 0 0 Z " fill="#F2F3F4" transform="translate(475,537)"/>
<path d="M0 0 C3.12 1.05 3.92 1.85 5.48 4.82 C5.9 5.91 6.32 7 6.75 8.12 C7.18 9.22 7.61 10.32 8.05 11.45 C8.36 12.29 8.68 13.13 9 14 C10.06 14.04 11.12 14.07 12.21 14.11 C13.6 14.18 14.99 14.25 16.38 14.31 C17.07 14.34 17.77 14.36 18.49 14.38 C20.52 14.49 20.52 14.49 24 15 C24.66 15.99 25.32 16.98 26 18 C24.75 19.11 23.5 20.21 22.25 21.31 C21.55 21.93 20.86 22.54 20.14 23.18 C18.15 24.87 16.11 26.45 14 28 C14.43 31.55 14.93 34.79 16.06 38.19 C17 41 17 41 17 45 C12.64 44.22 9.82 41.86 6.32 39.28 C3.54 37.75 2.13 37.5 -1 38 C-3.42 39.5 -3.42 39.5 -5.62 41.5 C-9.69 45 -9.69 45 -13 45 C-14.52 40.45 -12.75 36.76 -11.5 32.23 C-10.95 28.67 -11.23 27.09 -13 24 C-14.65 23.29 -16.32 22.63 -18 22 C-20.81 19.38 -20.81 19.38 -23 17 C-19.32 14.55 -16.56 14.77 -12.31 14.88 C-11.26 14.89 -11.26 14.89 -10.19 14.9 C-8.46 14.93 -6.73 14.96 -5 15 C-4.71 14 -4.71 14 -4.41 12.99 C-1.83 4.22 -1.83 4.22 0 0 Z " fill="#F1F2F3" transform="translate(58,347)"/>
<path d="M0 0 C3 1 3 1 4.17 3.18 C4.5 4.07 4.84 4.96 5.19 5.88 C5.53 6.76 5.88 7.64 6.23 8.55 C7 11 7 11 7 14 C11.29 15.43 15.57 15.44 20.07 15.72 C23 16 23 16 25 17 C25 17.99 25 18.98 25 20 C22.88 22.04 22.88 22.04 20.12 24.19 C19.22 24.9 18.32 25.62 17.38 26.36 C15 28 15 28 13 28 C13.3 28.96 13.6 29.93 13.91 30.92 C14.29 32.19 14.67 33.45 15.06 34.75 C15.45 36 15.83 37.26 16.22 38.55 C16.93 41.67 17.17 43.09 16 46 C15.25 45.59 14.5 45.18 13.73 44.76 C12.26 43.95 12.26 43.95 10.75 43.12 C9.78 42.59 8.8 42.06 7.8 41.51 C6.87 41.01 5.95 40.51 5 40 C4.34 39.54 3.67 39.07 2.99 38.6 C0.83 37.71 0.83 37.71 -1.69 39.3 C-2.64 39.96 -3.59 40.63 -4.56 41.31 C-9.81 44.94 -9.81 44.94 -13 46 C-14.31 42.32 -13.82 40.1 -12.5 36.56 C-11.09 32.67 -10.53 30.03 -12 26 C-13.68 24.82 -13.68 24.82 -16 24 C-18.38 22.4 -20.69 20.7 -23 19 C-22.5 17.51 -22.5 17.51 -22 16 C-14.08 15.5 -14.08 15.5 -6 15 C-5.38 13.08 -4.76 11.16 -4.12 9.19 C-3 5.69 -2.05 3.07 0 0 Z " fill="#F2F2F3" transform="translate(534,423)"/>
<path d="M0 0 C2.6 0.99 3.76 1.54 5.05 4.06 C5.28 4.84 5.51 5.63 5.75 6.44 C6.11 7.61 6.11 7.61 6.48 8.81 C7 11 7 11 7 14 C11.29 15.43 15.57 15.44 20.07 15.72 C23 16 23 16 25 17 C24.68 20.05 24.11 20.91 21.71 22.92 C20.8 23.53 19.88 24.13 18.94 24.75 C18.02 25.36 17.1 25.98 16.15 26.61 C15.44 27.07 14.73 27.53 14 28 C14.75 33.72 15.83 39.35 17 45 C16.01 45.5 16.01 45.5 15 46 C14.41 45.59 13.82 45.18 13.21 44.76 C12.02 43.95 12.02 43.95 10.81 43.12 C10.04 42.59 9.26 42.06 8.46 41.51 C6.03 40.02 3.67 38.98 1 38 C0.34 38.58 -0.32 39.15 -1 39.75 C-4.48 42.36 -8.08 44.17 -12 46 C-12.66 45.34 -13.32 44.68 -14 44 C-13.79 42.01 -13.79 42.01 -13.19 39.69 C-12.9 38.48 -12.9 38.48 -12.6 37.24 C-12 35 -12 35 -11.06 32.31 C-10.98 29.2 -12.33 27.73 -14.39 25.49 C-17.07 23.01 -19.96 21.02 -23 19 C-22.5 17.51 -22.5 17.51 -22 16 C-14.08 15.5 -14.08 15.5 -6 15 C-5.38 13.45 -4.76 11.91 -4.12 10.31 C-2.75 6.88 -1.38 3.44 0 0 Z " fill="#F2F3F4" transform="translate(177,423)"/>
<path d="M0 0 C0.66 0 1.32 0 2 0 C4.53 4.64 6.47 8.65 7 14 C10.47 15.16 13.54 15.33 17.19 15.56 C19.1 15.69 19.1 15.69 21.04 15.82 C22.51 15.91 22.51 15.91 24 16 C24 16.66 24 17.32 24 18 C24.66 18.33 25.32 18.66 26 19 C24.38 20.34 22.75 21.67 21.12 23 C20.22 23.74 19.32 24.49 18.38 25.25 C16 27 16 27 14 27 C14.58 33.14 15.54 39.01 17 45 C16.01 45.5 16.01 45.5 15 46 C14.19 45.4 13.38 44.8 12.55 44.18 C11.48 43.42 10.41 42.66 9.31 41.88 C7.73 40.73 7.73 40.73 6.11 39.55 C3.18 37.68 3.18 37.68 0.44 38.56 C-0.37 39.04 -1.17 39.51 -2 40 C-2.88 40.5 -3.77 41 -4.68 41.51 C-5.55 42.04 -6.42 42.58 -7.31 43.12 C-8.2 43.66 -9.08 44.2 -9.99 44.76 C-10.65 45.17 -11.32 45.58 -12 46 C-13.56 43.58 -14.11 42.5 -13.5 39.63 C-13.19 38.81 -12.88 37.98 -12.56 37.12 C-11.21 33.05 -10.43 30.18 -12 26 C-13.68 24.82 -13.68 24.82 -16 24 C-18.38 22.4 -20.69 20.7 -23 19 C-22.01 17.51 -22.01 17.51 -21 16 C-18.37 15.61 -16.01 15.4 -13.38 15.31 C-10.94 15.21 -8.51 15.11 -6 15 C-4.02 10.05 -2.04 5.1 0 0 Z " fill="#F2F2F3" transform="translate(415,423)"/>
<path d="M0 0 C3 1 3 1 4.17 3.18 C4.5 4.07 4.84 4.96 5.19 5.88 C5.53 6.76 5.88 7.64 6.23 8.55 C7 11 7 11 7 14 C11.52 15.51 16.11 15.34 20.85 15.52 C21.89 15.68 22.93 15.84 24 16 C24.66 16.99 25.32 17.98 26 19 C20.06 23.45 20.06 23.45 14 28 C14.63 33.78 15.65 39.34 17 45 C12.34 45 9.49 42 5.79 39.34 C3.11 37.69 3.11 37.69 0.45 38.59 C-2.04 40.02 -4.44 41.5 -6.81 43.12 C-7.6 43.66 -8.39 44.2 -9.21 44.76 C-9.8 45.17 -10.39 45.58 -11 46 C-11.99 45.34 -12.98 44.68 -14 44 C-13.77 43.2 -13.54 42.41 -13.31 41.59 C-12.88 40 -12.88 40 -12.44 38.38 C-12.15 37.33 -11.86 36.29 -11.56 35.21 C-10.96 31.78 -11.13 29.36 -12 26 C-13.68 24.82 -13.68 24.82 -16 24 C-17.27 23.2 -18.52 22.36 -19.75 21.5 C-20.36 21.08 -20.98 20.65 -21.61 20.22 C-22.07 19.82 -22.53 19.41 -23 19 C-23 18.34 -23 17.68 -23 17 C-19.96 15.48 -16.72 15.63 -13.38 15.44 C-12.32 15.37 -12.32 15.37 -11.23 15.31 C-9.49 15.2 -7.74 15.1 -6 15 C-5.73 14.34 -5.47 13.67 -5.2 12.99 C-3.46 8.66 -1.73 4.33 0 0 Z " fill="#F2F2F3" transform="translate(296,423)"/>
<path d="M0 0 C3.55 2.37 3.78 3.54 5.06 7.5 C6.36 11.65 6.36 11.65 9 15 C11.37 15.3 13.74 15.5 16.12 15.62 C17.41 15.7 18.69 15.77 20.01 15.85 C21.49 15.93 21.49 15.93 23 16 C23 16.66 23 17.32 23 18 C23.66 18.33 24.32 18.66 25 19 C19.06 23.45 19.06 23.45 13 28 C13.63 33.78 14.65 39.34 16 45 C15.01 45.5 15.01 45.5 14 46 C13.19 45.4 12.38 44.8 11.55 44.18 C10.48 43.42 9.41 42.66 8.31 41.88 C6.73 40.73 6.73 40.73 5.11 39.55 C2.17 37.68 2.17 37.68 -0.59 38.56 C-3.05 40.03 -5.46 41.51 -7.81 43.12 C-8.6 43.66 -9.39 44.2 -10.21 44.76 C-10.8 45.17 -11.39 45.58 -12 46 C-12.99 45.34 -13.98 44.68 -15 44 C-14.77 43.2 -14.54 42.41 -14.31 41.59 C-13.88 40 -13.88 40 -13.44 38.38 C-13.15 37.33 -12.86 36.29 -12.56 35.21 C-11.95 31.72 -11.96 29.38 -13 26 C-14.81 24.74 -14.81 24.74 -17 24 C-18.28 23 -19.53 21.95 -20.75 20.88 C-21.36 20.34 -21.98 19.8 -22.61 19.24 C-23.07 18.83 -23.53 18.42 -24 18 C-21.15 15.15 -18.2 15.54 -14.38 15.38 C-13.67 15.34 -12.96 15.3 -12.23 15.26 C-10.49 15.16 -8.75 15.08 -7 15 C-6.75 14.34 -6.49 13.67 -6.23 12.99 C-4.45 8.43 -2.73 4.09 0 0 Z " fill="#F2F2F3" transform="translate(59,423)"/>
<path d="M0 0 C0.56 0.27 1.11 0.54 1.69 0.81 C1.03 1.47 0.37 2.13 -0.31 2.81 C-1.52 4.08 -1.52 4.08 -2.75 5.38 C-5.31 7.81 -5.31 7.81 -8.31 8.81 C-7.82 4.4 -4.79 -0.39 0 0 Z " fill="#9383AE" transform="translate(31.3125,244.1875)"/>
<path d="M0 0 C0 0.99 0 1.98 0 3 C-2.5 5.19 -2.5 5.19 -5 7 C-3.71 4.12 -2.34 2.13 0 0 Z " fill="#F4D8DB" transform="translate(1263,1017)"/>
<path d="M0 0 C1.65 0 3.3 0 5 0 C5 0.33 5 0.66 5 1 C3.35 1 1.7 1 0 1 C0 0.67 0 0.34 0 0 Z " fill="#F4D5D9" transform="translate(1214,1053)"/>
<path d="M0 0 C3 1 3 1 3 1 Z " fill="#000002" transform="translate(1214,1055)"/>
<path d="M0 0 C3 1 3 1 3 1 Z " fill="#000002" transform="translate(63,1055)"/>
<path d="" fill="#F6C1C7" transform="translate(0,0)"/>
<path d="M0 0 C2 1 2 1 2 1 Z " fill="#F6C1C7" transform="translate(78,1058)"/>
<path d="M0 0 C2 1 2 1 2 1 Z " fill="#F2F3F4" transform="translate(61,1053)"/>
<path d="M0 0 C2 1 2 1 2 1 Z " fill="#000002" transform="translate(1226,1050)"/>
<path d="M0 0 C2 1 2 1 2 1 Z " fill="#000002" transform="translate(52,1050)"/>
<path d="" fill="#F2F3F4" transform="translate(0,0)"/>
<path d="" fill="#000002" transform="translate(0,0)"/>
<path d="" fill="#000002" transform="translate(0,0)"/>
<path d="" fill="#000002" transform="translate(0,0)"/>
<path d="" fill="#000002" transform="translate(0,0)"/>
<path d="" fill="#2F175A" transform="translate(0,0)"/>
<path d="" fill="#000002" transform="translate(0,0)"/>
<path d="" fill="#F6C1C7" transform="translate(0,0)"/>
<path d="" fill="#F2F3F4" transform="translate(0,0)"/>
<path d="" fill="#000002" transform="translate(0,0)"/>
<path d="" fill="#000002" transform="translate(0,0)"/>
<path d="" fill="#F2F3F4" transform="translate(0,0)"/>
<path d="" fill="#F2F3F4" transform="translate(0,0)"/>
<path d="" fill="#000002" transform="translate(0,0)"/>
<path d="" fill="#000002" transform="translate(0,0)"/>
</svg>
